<?xml version="1.0" encoding="utf-8" standalone="no"?>
<!DOCTYPE svg PUBLIC "-//W3C//DTD SVG 1.1//EN"
  "http://www.w3.org/Graphics/SVG/1.1/DTD/svg11.dtd">
<!-- Created with matplotlib (https://matplotlib.org/) -->
<svg height="158.8125pt" version="1.1" viewBox="0 0 264.37934 158.8125" width="264.37934pt" xmlns="http://www.w3.org/2000/svg" xmlns:xlink="http://www.w3.org/1999/xlink">
 <metadata>
  <rdf:RDF xmlns:cc="http://creativecommons.org/ns#" xmlns:dc="http://purl.org/dc/elements/1.1/" xmlns:rdf="http://www.w3.org/1999/02/22-rdf-syntax-ns#">
   <cc:Work>
    <dc:type rdf:resource="http://purl.org/dc/dcmitype/StillImage"/>
    <dc:date>2022-04-12T19:28:58.712627</dc:date>
    <dc:format>image/svg+xml</dc:format>
    <dc:creator>
     <cc:Agent>
      <dc:title>Matplotlib v3.3.3, https://matplotlib.org/</dc:title>
     </cc:Agent>
    </dc:creator>
   </cc:Work>
  </rdf:RDF>
 </metadata>
 <defs>
  <style type="text/css">*{stroke-linecap:butt;stroke-linejoin:round;}</style>
 </defs>
 <g id="figure_1">
  <g id="patch_1">
   <path d="M 0 158.8125 
L 264.37934 158.8125 
L 264.37934 0 
L 0 0 
z
" style="fill:none;"/>
  </g>
  <g id="axes_1">
   <g id="patch_2">
    <path d="M 34.265 133 
L 166.37934 133 
L 166.37934 -0 
L 34.265 -0 
z
" style="fill:none;"/>
   </g>
   <g id="matplotlib.axis_1">
    <g id="xtick_1">
     <g id="line2d_1">
      <defs>
       <path d="M 0 0 
L 0 3.5 
" id="m3657793bcd" style="stroke:#000000;stroke-width:1.5;"/>
      </defs>
      <g>
       <use style="stroke:#000000;stroke-width:1.5;" x="40.270197" xlink:href="#m3657793bcd" y="133"/>
      </g>
     </g>
     <g id="text_1">
      <!-- 0.00 -->
      <g transform="translate(32.485822 145.73875)scale(0.08 -0.08)">
       <defs>
        <path d="M 27.046875 69.921875 
Q 40.625 69.921875 46.6875 58.734375 
Q 51.375 50.09375 51.375 35.0625 
Q 51.375 20.796875 47.125 11.46875 
Q 40.96875 -1.90625 27 -1.90625 
Q 14.40625 -1.90625 8.25 9.03125 
Q 3.125 18.171875 3.125 33.546875 
Q 3.125 45.453125 6.203125 54 
Q 11.96875 69.921875 27.046875 69.921875 
z
M 26.953125 6.109375 
Q 33.796875 6.109375 37.84375 12.15625 
Q 41.890625 18.21875 41.890625 34.71875 
Q 41.890625 46.625 38.953125 54.3125 
Q 36.03125 62.015625 27.59375 62.015625 
Q 19.828125 62.015625 16.234375 54.703125 
Q 12.640625 47.40625 12.640625 33.203125 
Q 12.640625 22.515625 14.9375 16.015625 
Q 18.453125 6.109375 26.953125 6.109375 
z
" id="Helvetica-48"/>
        <path d="M 8.546875 10.640625 
L 18.75 10.640625 
L 18.75 0 
L 8.546875 0 
z
" id="Helvetica-46"/>
       </defs>
       <use xlink:href="#Helvetica-48"/>
       <use x="55.615234" xlink:href="#Helvetica-46"/>
       <use x="83.398438" xlink:href="#Helvetica-48"/>
       <use x="139.013672" xlink:href="#Helvetica-48"/>
      </g>
     </g>
    </g>
    <g id="xtick_2">
     <g id="line2d_2">
      <g>
       <use style="stroke:#000000;stroke-width:1.5;" x="70.296184" xlink:href="#m3657793bcd" y="133"/>
      </g>
     </g>
     <g id="text_2">
      <!-- 0.25 -->
      <g transform="translate(62.511809 145.73875)scale(0.08 -0.08)">
       <defs>
        <path d="M 3.125 0 
Q 3.609375 9.03125 6.859375 15.71875 
Q 10.109375 22.40625 19.53125 27.875 
L 28.90625 33.296875 
Q 35.203125 36.96875 37.75 39.546875 
Q 41.75 43.609375 41.75 48.828125 
Q 41.75 54.9375 38.078125 58.515625 
Q 34.421875 62.109375 28.328125 62.109375 
Q 19.28125 62.109375 15.828125 55.28125 
Q 13.96875 51.609375 13.765625 45.125 
L 4.828125 45.125 
Q 4.984375 54.25 8.203125 60.015625 
Q 13.921875 70.171875 28.375 70.171875 
Q 40.375 70.171875 45.921875 63.671875 
Q 51.46875 57.171875 51.46875 49.21875 
Q 51.46875 40.828125 45.5625 34.859375 
Q 42.140625 31.390625 33.296875 26.46875 
L 26.609375 22.75 
Q 21.828125 20.125 19.09375 17.71875 
Q 14.203125 13.484375 12.9375 8.296875 
L 51.125 8.296875 
L 51.125 0 
L 3.125 0 
z
" id="Helvetica-50"/>
        <path d="M 12.359375 17.828125 
Q 13.234375 10.296875 19.34375 7.421875 
Q 22.46875 5.953125 26.5625 5.953125 
Q 34.375 5.953125 38.125 10.9375 
Q 41.890625 15.921875 41.890625 21.96875 
Q 41.890625 29.296875 37.421875 33.296875 
Q 32.953125 37.3125 26.703125 37.3125 
Q 22.171875 37.3125 18.921875 35.546875 
Q 15.671875 33.796875 13.375 30.671875 
L 5.765625 31.109375 
L 11.078125 68.75 
L 47.40625 68.75 
L 47.40625 60.25 
L 17.671875 60.25 
L 14.703125 40.828125 
Q 17.140625 42.671875 19.34375 43.609375 
Q 23.25 45.21875 28.375 45.21875 
Q 37.984375 45.21875 44.671875 39.015625 
Q 51.375 32.8125 51.375 23.296875 
Q 51.375 13.375 45.234375 5.796875 
Q 39.109375 -1.765625 25.6875 -1.765625 
Q 17.140625 -1.765625 10.5625 3.046875 
Q 4 7.859375 3.21875 17.828125 
z
" id="Helvetica-53"/>
       </defs>
       <use xlink:href="#Helvetica-48"/>
       <use x="55.615234" xlink:href="#Helvetica-46"/>
       <use x="83.398438" xlink:href="#Helvetica-50"/>
       <use x="139.013672" xlink:href="#Helvetica-53"/>
      </g>
     </g>
    </g>
    <g id="xtick_3">
     <g id="line2d_3">
      <g>
       <use style="stroke:#000000;stroke-width:1.5;" x="100.32217" xlink:href="#m3657793bcd" y="133"/>
      </g>
     </g>
     <g id="text_3">
      <!-- 0.50 -->
      <g transform="translate(92.537795 145.73875)scale(0.08 -0.08)">
       <use xlink:href="#Helvetica-48"/>
       <use x="55.615234" xlink:href="#Helvetica-46"/>
       <use x="83.398438" xlink:href="#Helvetica-53"/>
       <use x="139.013672" xlink:href="#Helvetica-48"/>
      </g>
     </g>
    </g>
    <g id="xtick_4">
     <g id="line2d_4">
      <g>
       <use style="stroke:#000000;stroke-width:1.5;" x="130.348156" xlink:href="#m3657793bcd" y="133"/>
      </g>
     </g>
     <g id="text_4">
      <!-- 0.75 -->
      <g transform="translate(122.563781 145.73875)scale(0.08 -0.08)">
       <defs>
        <path d="M 52.296875 68.75 
L 52.296875 61.078125 
Q 48.921875 57.8125 43.328125 49.703125 
Q 37.75 41.609375 33.453125 32.234375 
Q 29.203125 23.09375 27 15.578125 
Q 25.59375 10.75 23.34375 0 
L 13.625 0 
Q 16.9375 20.015625 28.265625 39.84375 
Q 34.96875 51.46875 42.328125 59.90625 
L 3.65625 59.90625 
L 3.65625 68.75 
z
" id="Helvetica-55"/>
       </defs>
       <use xlink:href="#Helvetica-48"/>
       <use x="55.615234" xlink:href="#Helvetica-46"/>
       <use x="83.398438" xlink:href="#Helvetica-55"/>
       <use x="139.013672" xlink:href="#Helvetica-53"/>
      </g>
     </g>
    </g>
    <g id="xtick_5">
     <g id="line2d_5">
      <g>
       <use style="stroke:#000000;stroke-width:1.5;" x="160.374143" xlink:href="#m3657793bcd" y="133"/>
      </g>
     </g>
     <g id="text_5">
      <!-- 1.00 -->
      <g transform="translate(152.589768 145.73875)scale(0.08 -0.08)">
       <defs>
        <path d="M 9.578125 49.515625 
L 9.578125 56.25 
Q 19.09375 57.171875 22.84375 59.34375 
Q 26.609375 61.53125 28.46875 69.625 
L 35.40625 69.625 
L 35.40625 0 
L 26.03125 0 
L 26.03125 49.515625 
z
" id="Helvetica-49"/>
       </defs>
       <use xlink:href="#Helvetica-49"/>
       <use x="55.615234" xlink:href="#Helvetica-46"/>
       <use x="83.398438" xlink:href="#Helvetica-48"/>
       <use x="139.013672" xlink:href="#Helvetica-48"/>
      </g>
     </g>
    </g>
    <g id="text_6">
     <!-- Phase -->
     <g transform="translate(88.98092 157.145)scale(0.08 -0.08)">
      <defs>
       <path d="M 8.546875 71.734375 
L 40.828125 71.734375 
Q 50.390625 71.734375 56.25 66.328125 
Q 62.109375 60.9375 62.109375 51.171875 
Q 62.109375 42.78125 56.875 36.546875 
Q 51.65625 30.328125 40.828125 30.328125 
L 18.265625 30.328125 
L 18.265625 0 
L 8.546875 0 
z
M 52.296875 51.125 
Q 52.296875 59.03125 46.4375 61.859375 
Q 43.21875 63.375 37.59375 63.375 
L 18.265625 63.375 
L 18.265625 38.53125 
L 37.59375 38.53125 
Q 44.140625 38.53125 48.21875 41.3125 
Q 52.296875 44.09375 52.296875 51.125 
z
" id="Helvetica-80"/>
       <path d="M 6.453125 71.96875 
L 15.234375 71.96875 
L 15.234375 45.21875 
Q 18.359375 49.171875 20.84375 50.78125 
Q 25.09375 53.5625 31.453125 53.5625 
Q 42.828125 53.5625 46.875 45.609375 
Q 49.078125 41.265625 49.078125 33.546875 
L 49.078125 0 
L 40.046875 0 
L 40.046875 32.953125 
Q 40.046875 38.71875 38.578125 41.40625 
Q 36.1875 45.703125 29.59375 45.703125 
Q 24.125 45.703125 19.671875 41.9375 
Q 15.234375 38.1875 15.234375 27.734375 
L 15.234375 0 
L 6.453125 0 
z
" id="Helvetica-104"/>
       <path d="M 13.1875 13.921875 
Q 13.1875 10.109375 15.96875 7.90625 
Q 18.75 5.71875 22.5625 5.71875 
Q 27.203125 5.71875 31.546875 7.859375 
Q 38.875 11.421875 38.875 19.53125 
L 38.875 26.609375 
Q 37.25 25.59375 34.703125 24.90625 
Q 32.171875 24.21875 29.734375 23.921875 
L 24.421875 23.25 
Q 19.625 22.609375 17.234375 21.234375 
Q 13.1875 18.953125 13.1875 13.921875 
z
M 34.46875 31.6875 
Q 37.5 32.078125 38.53125 34.234375 
Q 39.109375 35.40625 39.109375 37.59375 
Q 39.109375 42.09375 35.90625 44.109375 
Q 32.71875 46.140625 26.765625 46.140625 
Q 19.875 46.140625 17 42.4375 
Q 15.375 40.375 14.890625 36.328125 
L 6.6875 36.328125 
Q 6.9375 46 12.96875 49.78125 
Q 19 53.5625 26.953125 53.5625 
Q 36.1875 53.5625 41.9375 50.046875 
Q 47.65625 46.53125 47.65625 39.109375 
L 47.65625 8.984375 
Q 47.65625 7.625 48.21875 6.78125 
Q 48.78125 5.953125 50.59375 5.953125 
Q 51.171875 5.953125 51.90625 6.03125 
Q 52.640625 6.109375 53.46875 6.25 
L 53.46875 -0.25 
Q 51.421875 -0.828125 50.34375 -0.96875 
Q 49.265625 -1.125 47.40625 -1.125 
Q 42.875 -1.125 40.828125 2.09375 
Q 39.75 3.8125 39.3125 6.9375 
Q 36.625 3.421875 31.59375 0.828125 
Q 26.5625 -1.765625 20.515625 -1.765625 
Q 13.234375 -1.765625 8.609375 2.65625 
Q 4 7.078125 4 13.71875 
Q 4 21 8.546875 25 
Q 13.09375 29 20.453125 29.9375 
z
M 27.203125 53.5625 
z
" id="Helvetica-97"/>
       <path d="M 11.671875 16.40625 
Q 12.0625 12.015625 13.875 9.671875 
Q 17.1875 5.421875 25.390625 5.421875 
Q 30.28125 5.421875 33.984375 7.546875 
Q 37.703125 9.671875 37.703125 14.109375 
Q 37.703125 17.484375 34.71875 19.234375 
Q 32.8125 20.3125 27.203125 21.734375 
L 20.21875 23.484375 
Q 13.53125 25.140625 10.359375 27.203125 
Q 4.6875 30.765625 4.6875 37.0625 
Q 4.6875 44.484375 10.03125 49.0625 
Q 15.375 53.65625 24.421875 53.65625 
Q 36.234375 53.65625 41.453125 46.734375 
Q 44.734375 42.328125 44.625 37.25 
L 36.328125 37.25 
Q 36.078125 40.234375 34.234375 42.671875 
Q 31.203125 46.140625 23.734375 46.140625 
Q 18.75 46.140625 16.1875 44.234375 
Q 13.625 42.328125 13.625 39.203125 
Q 13.625 35.796875 17 33.734375 
Q 18.953125 32.515625 22.75 31.59375 
L 28.5625 30.171875 
Q 38.03125 27.875 41.265625 25.734375 
Q 46.390625 22.359375 46.390625 15.140625 
Q 46.390625 8.15625 41.09375 3.078125 
Q 35.796875 -2 24.953125 -2 
Q 13.28125 -2 8.421875 3.296875 
Q 3.5625 8.59375 3.21875 16.40625 
z
M 24.65625 53.5625 
z
" id="Helvetica-115"/>
       <path d="M 28.21875 53.46875 
Q 33.796875 53.46875 39.015625 50.859375 
Q 44.234375 48.25 46.96875 44.09375 
Q 49.609375 40.140625 50.484375 34.859375 
Q 51.265625 31.25 51.265625 23.34375 
L 12.9375 23.34375 
Q 13.1875 15.375 16.703125 10.5625 
Q 20.21875 5.765625 27.59375 5.765625 
Q 34.46875 5.765625 38.578125 10.296875 
Q 40.921875 12.9375 41.890625 16.40625 
L 50.53125 16.40625 
Q 50.203125 13.53125 48.265625 9.984375 
Q 46.34375 6.453125 43.953125 4.203125 
Q 39.9375 0.296875 34.03125 -1.078125 
Q 30.859375 -1.859375 26.859375 -1.859375 
Q 17.09375 -1.859375 10.296875 5.25 
Q 3.515625 12.359375 3.515625 25.140625 
Q 3.515625 37.75 10.34375 45.609375 
Q 17.1875 53.46875 28.21875 53.46875 
z
M 42.234375 30.328125 
Q 41.703125 36.03125 39.75 39.453125 
Q 36.140625 45.796875 27.6875 45.796875 
Q 21.625 45.796875 17.515625 41.421875 
Q 13.421875 37.0625 13.1875 30.328125 
z
M 27.390625 53.5625 
z
" id="Helvetica-101"/>
      </defs>
      <use xlink:href="#Helvetica-80"/>
      <use x="66.699219" xlink:href="#Helvetica-104"/>
      <use x="122.314453" xlink:href="#Helvetica-97"/>
      <use x="177.929688" xlink:href="#Helvetica-115"/>
      <use x="227.929688" xlink:href="#Helvetica-101"/>
     </g>
    </g>
   </g>
   <g id="matplotlib.axis_2">
    <g id="ytick_1">
     <g id="line2d_6">
      <defs>
       <path d="M 0 0 
L -3.5 0 
" id="ma84f4029fd" style="stroke:#000000;stroke-width:1.5;"/>
      </defs>
      <g>
       <use style="stroke:#000000;stroke-width:1.5;" x="34.265" xlink:href="#ma84f4029fd" y="109.084262"/>
      </g>
     </g>
     <g id="text_7">
      <!-- $\mathdefault{10^{-3}}$ -->
      <g transform="translate(11.665 111.953637)scale(0.08 -0.08)">
       <defs>
        <path d="M 55.421875 29.59375 
L 55.421875 21.390625 
L 4.5 21.390625 
L 4.5 29.59375 
z
" id="Helvetica-8722"/>
        <path d="M 25.984375 -1.90625 
Q 13.578125 -1.90625 7.984375 4.90625 
Q 2.390625 11.71875 2.390625 21.484375 
L 11.578125 21.484375 
Q 12.15625 14.703125 14.109375 11.625 
Q 17.53125 6.109375 26.46875 6.109375 
Q 33.40625 6.109375 37.59375 9.8125 
Q 41.796875 13.53125 41.796875 19.390625 
Q 41.796875 26.609375 37.375 29.484375 
Q 32.953125 32.375 25.09375 32.375 
Q 24.21875 32.375 23.3125 32.34375 
Q 22.40625 32.328125 21.484375 32.28125 
L 21.484375 40.046875 
Q 22.859375 39.890625 23.78125 39.84375 
Q 24.703125 39.796875 25.78125 39.796875 
Q 30.71875 39.796875 33.890625 41.359375 
Q 39.453125 44.09375 39.453125 51.125 
Q 39.453125 56.34375 35.734375 59.171875 
Q 32.03125 62.015625 27.09375 62.015625 
Q 18.3125 62.015625 14.9375 56.15625 
Q 13.09375 52.9375 12.84375 46.96875 
L 4.15625 46.96875 
Q 4.15625 54.78125 7.28125 60.25 
Q 12.640625 70.015625 26.171875 70.015625 
Q 36.859375 70.015625 42.71875 65.25 
Q 48.578125 60.5 48.578125 51.46875 
Q 48.578125 45.015625 45.125 41.015625 
Q 42.96875 38.53125 39.546875 37.109375 
Q 45.0625 35.59375 48.15625 31.265625 
Q 51.265625 26.953125 51.265625 20.703125 
Q 51.265625 10.6875 44.671875 4.390625 
Q 38.09375 -1.90625 25.984375 -1.90625 
z
" id="Helvetica-51"/>
       </defs>
       <use transform="translate(0 0.38125)" xlink:href="#Helvetica-49"/>
       <use transform="translate(55.615234 0.38125)" xlink:href="#Helvetica-48"/>
       <use transform="translate(112.145664 36.989063)scale(0.7)" xlink:href="#Helvetica-8722"/>
       <use transform="translate(153.02457 36.989063)scale(0.7)" xlink:href="#Helvetica-51"/>
      </g>
     </g>
    </g>
    <g id="ytick_2">
     <g id="line2d_7">
      <g>
       <use style="stroke:#000000;stroke-width:1.5;" x="34.265" xlink:href="#ma84f4029fd" y="81.266274"/>
      </g>
     </g>
     <g id="text_8">
      <!-- $\mathdefault{10^{-1}}$ -->
      <g transform="translate(11.665 84.135649)scale(0.08 -0.08)">
       <use transform="translate(0 0.654688)" xlink:href="#Helvetica-49"/>
       <use transform="translate(55.615234 0.654688)" xlink:href="#Helvetica-48"/>
       <use transform="translate(112.145664 37.2625)scale(0.7)" xlink:href="#Helvetica-8722"/>
       <use transform="translate(153.02457 37.2625)scale(0.7)" xlink:href="#Helvetica-49"/>
      </g>
     </g>
    </g>
    <g id="ytick_3">
     <g id="line2d_8">
      <g>
       <use style="stroke:#000000;stroke-width:1.5;" x="34.265" xlink:href="#ma84f4029fd" y="53.448286"/>
      </g>
     </g>
     <g id="text_9">
      <!-- $\mathdefault{10^{1}}$ -->
      <g transform="translate(14.945 56.317661)scale(0.08 -0.08)">
       <use transform="translate(0 0.654688)" xlink:href="#Helvetica-49"/>
       <use transform="translate(55.615234 0.654688)" xlink:href="#Helvetica-48"/>
       <use transform="translate(112.145664 37.2625)scale(0.7)" xlink:href="#Helvetica-49"/>
      </g>
     </g>
    </g>
    <g id="ytick_4">
     <g id="line2d_9">
      <g>
       <use style="stroke:#000000;stroke-width:1.5;" x="34.265" xlink:href="#ma84f4029fd" y="25.630299"/>
      </g>
     </g>
     <g id="text_10">
      <!-- $\mathdefault{10^{3}}$ -->
      <g transform="translate(14.945 28.499674)scale(0.08 -0.08)">
       <use transform="translate(0 0.38125)" xlink:href="#Helvetica-49"/>
       <use transform="translate(55.615234 0.38125)" xlink:href="#Helvetica-48"/>
       <use transform="translate(112.145664 36.989063)scale(0.7)" xlink:href="#Helvetica-51"/>
      </g>
     </g>
    </g>
    <g id="text_11">
     <!-- Covariance (log) -->
     <g transform="translate(5.895 95.84375)rotate(-90)scale(0.08 -0.08)">
      <defs>
       <path d="M 37.84375 73.6875 
Q 51.46875 73.6875 58.984375 66.5 
Q 66.5 59.328125 67.328125 50.203125 
L 57.859375 50.203125 
Q 56.25 57.125 51.4375 61.171875 
Q 46.625 65.234375 37.9375 65.234375 
Q 27.34375 65.234375 20.828125 57.78125 
Q 14.3125 50.34375 14.3125 34.96875 
Q 14.3125 22.359375 20.1875 14.515625 
Q 26.078125 6.6875 37.75 6.6875 
Q 48.484375 6.6875 54.109375 14.9375 
Q 57.078125 19.28125 58.546875 26.375 
L 68.015625 26.375 
Q 66.75 15.046875 59.625 7.375 
Q 51.078125 -1.859375 36.578125 -1.859375 
Q 24.078125 -1.859375 15.578125 5.71875 
Q 4.390625 15.71875 4.390625 36.625 
Q 4.390625 52.484375 12.796875 62.640625 
Q 21.875 73.6875 37.84375 73.6875 
z
M 35.890625 73.6875 
z
" id="Helvetica-67"/>
       <path d="M 27.203125 5.671875 
Q 35.9375 5.671875 39.1875 12.28125 
Q 42.4375 18.890625 42.4375 27 
Q 42.4375 34.328125 40.09375 38.921875 
Q 36.375 46.140625 27.296875 46.140625 
Q 19.234375 46.140625 15.578125 39.984375 
Q 11.921875 33.84375 11.921875 25.140625 
Q 11.921875 16.796875 15.578125 11.234375 
Q 19.234375 5.671875 27.203125 5.671875 
z
M 27.546875 53.8125 
Q 37.640625 53.8125 44.625 47.0625 
Q 51.609375 40.328125 51.609375 27.25 
Q 51.609375 14.59375 45.453125 6.34375 
Q 39.3125 -1.90625 26.375 -1.90625 
Q 15.578125 -1.90625 9.21875 5.390625 
Q 2.875 12.703125 2.875 25 
Q 2.875 38.1875 9.5625 46 
Q 16.265625 53.8125 27.546875 53.8125 
z
M 27.25 53.5625 
z
" id="Helvetica-111"/>
       <path d="M 10.75 52.296875 
L 24.703125 9.71875 
L 39.3125 52.296875 
L 48.921875 52.296875 
L 29.203125 0 
L 19.828125 0 
L 0.53125 52.296875 
z
" id="Helvetica-118"/>
       <path d="M 6.6875 52.296875 
L 15.046875 52.296875 
L 15.046875 43.265625 
Q 16.0625 45.90625 20.0625 49.6875 
Q 24.078125 53.46875 29.296875 53.46875 
Q 29.546875 53.46875 30.125 53.421875 
Q 30.71875 53.375 32.125 53.21875 
L 32.125 43.953125 
Q 31.34375 44.09375 30.6875 44.140625 
Q 30.03125 44.1875 29.25 44.1875 
Q 22.609375 44.1875 19.046875 39.90625 
Q 15.484375 35.640625 15.484375 30.078125 
L 15.484375 0 
L 6.6875 0 
z
" id="Helvetica-114"/>
       <path d="M 6.453125 52.046875 
L 15.375 52.046875 
L 15.375 0 
L 6.453125 0 
z
M 6.453125 71.734375 
L 15.375 71.734375 
L 15.375 61.765625 
L 6.453125 61.765625 
z
" id="Helvetica-105"/>
       <path d="M 6.453125 52.296875 
L 14.796875 52.296875 
L 14.796875 44.875 
Q 18.5 49.46875 22.65625 51.46875 
Q 26.8125 53.46875 31.890625 53.46875 
Q 43.015625 53.46875 46.921875 45.703125 
Q 49.078125 41.453125 49.078125 33.546875 
L 49.078125 0 
L 40.140625 0 
L 40.140625 32.953125 
Q 40.140625 37.75 38.71875 40.671875 
Q 36.375 45.5625 30.21875 45.5625 
Q 27.09375 45.5625 25.09375 44.921875 
Q 21.484375 43.84375 18.75 40.625 
Q 16.546875 38.03125 15.890625 35.265625 
Q 15.234375 32.515625 15.234375 27.390625 
L 15.234375 0 
L 6.453125 0 
z
M 27.09375 53.5625 
z
" id="Helvetica-110"/>
       <path d="M 26.609375 53.8125 
Q 35.453125 53.8125 40.984375 49.515625 
Q 46.53125 45.21875 47.65625 34.71875 
L 39.109375 34.71875 
Q 38.328125 39.546875 35.546875 42.75 
Q 32.765625 45.953125 26.609375 45.953125 
Q 18.21875 45.953125 14.59375 37.75 
Q 12.25 32.421875 12.25 24.609375 
Q 12.25 16.75 15.5625 11.375 
Q 18.890625 6 26.03125 6 
Q 31.5 6 34.6875 9.34375 
Q 37.890625 12.703125 39.109375 18.5 
L 47.65625 18.5 
Q 46.1875 8.109375 40.328125 3.296875 
Q 34.46875 -1.515625 25.34375 -1.515625 
Q 15.09375 -1.515625 8.984375 5.984375 
Q 2.875 13.484375 2.875 24.703125 
Q 2.875 38.484375 9.5625 46.140625 
Q 16.265625 53.8125 26.609375 53.8125 
z
M 25.25 53.5625 
z
" id="Helvetica-99"/>
       <path id="Helvetica-32"/>
       <path d="M 29.59375 72.90625 
Q 21.921875 58.015625 19.625 50.984375 
Q 16.15625 40.28125 16.15625 26.265625 
Q 16.15625 12.109375 20.125 0.390625 
Q 22.5625 -6.84375 29.734375 -20.40625 
L 23.828125 -20.40625 
Q 16.703125 -9.28125 14.984375 -6.203125 
Q 13.28125 -3.125 11.28125 2.15625 
Q 8.546875 9.375 7.46875 17.578125 
Q 6.9375 21.828125 6.9375 25.6875 
Q 6.9375 40.140625 11.46875 51.421875 
Q 14.359375 58.59375 23.484375 72.90625 
z
" id="Helvetica-40"/>
       <path d="M 6.6875 71.734375 
L 15.484375 71.734375 
L 15.484375 0 
L 6.6875 0 
z
" id="Helvetica-108"/>
       <path d="M 24.90625 53.21875 
Q 31.0625 53.21875 35.640625 50.203125 
Q 38.140625 48.484375 40.71875 45.21875 
L 40.71875 51.8125 
L 48.828125 51.8125 
L 48.828125 4.25 
Q 48.828125 -5.71875 45.90625 -11.46875 
Q 40.4375 -22.125 25.25 -22.125 
Q 16.796875 -22.125 11.03125 -18.328125 
Q 5.28125 -14.546875 4.59375 -6.5 
L 13.53125 -6.5 
Q 14.15625 -10.015625 16.0625 -11.921875 
Q 19.046875 -14.84375 25.4375 -14.84375 
Q 35.546875 -14.84375 38.671875 -7.71875 
Q 40.53125 -3.515625 40.375 7.28125 
Q 37.75 3.265625 34.03125 1.3125 
Q 30.328125 -0.640625 24.21875 -0.640625 
Q 15.71875 -0.640625 9.34375 5.390625 
Q 2.984375 11.421875 2.984375 25.34375 
Q 2.984375 38.484375 9.40625 45.84375 
Q 15.828125 53.21875 24.90625 53.21875 
z
M 40.71875 26.375 
Q 40.71875 36.078125 36.71875 40.765625 
Q 32.71875 45.453125 26.515625 45.453125 
Q 17.234375 45.453125 13.8125 36.765625 
Q 12.015625 32.125 12.015625 24.609375 
Q 12.015625 15.765625 15.59375 11.15625 
Q 19.1875 6.546875 25.25 6.546875 
Q 34.71875 6.546875 38.578125 15.09375 
Q 40.71875 19.921875 40.71875 26.375 
z
M 25.921875 53.5625 
z
" id="Helvetica-103"/>
       <path d="M 3.46875 -20.40625 
Q 11.234375 -5.28125 13.484375 1.65625 
Q 16.890625 12.15625 16.890625 26.265625 
Q 16.890625 40.375 12.9375 52.09375 
Q 10.5 59.328125 3.328125 72.90625 
L 9.234375 72.90625 
Q 16.75 60.890625 18.328125 58.078125 
Q 19.921875 55.28125 21.78125 50.34375 
Q 24.125 44.234375 25.125 38.28125 
Q 26.125 32.328125 26.125 26.8125 
Q 26.125 12.359375 21.53125 1.03125 
Q 18.65625 -6.25 9.578125 -20.40625 
z
" id="Helvetica-41"/>
      </defs>
      <use xlink:href="#Helvetica-67"/>
      <use x="72.216797" xlink:href="#Helvetica-111"/>
      <use x="127.832031" xlink:href="#Helvetica-118"/>
      <use x="177.832031" xlink:href="#Helvetica-97"/>
      <use x="233.447266" xlink:href="#Helvetica-114"/>
      <use x="266.748047" xlink:href="#Helvetica-105"/>
      <use x="288.964844" xlink:href="#Helvetica-97"/>
      <use x="344.580078" xlink:href="#Helvetica-110"/>
      <use x="400.195312" xlink:href="#Helvetica-99"/>
      <use x="450.195312" xlink:href="#Helvetica-101"/>
      <use x="505.810547" xlink:href="#Helvetica-32"/>
      <use x="533.59375" xlink:href="#Helvetica-40"/>
      <use x="566.894531" xlink:href="#Helvetica-108"/>
      <use x="589.111328" xlink:href="#Helvetica-111"/>
      <use x="644.726562" xlink:href="#Helvetica-103"/>
      <use x="700.341797" xlink:href="#Helvetica-41"/>
     </g>
    </g>
   </g>
   <g id="line2d_10">
    <path clip-path="url(#p1daca169d6)" d="M 40.270197 45.627956 
L 42.07356 45.630101 
L 43.275801 45.759613 
L 43.756698 45.941733 
L 44.95894 46.716218 
L 47.243199 48.566315 
L 52.533063 53.551142 
L 54.216201 54.486322 
L 55.779115 55.04468 
L 57.94315 55.465876 
L 59.746513 55.609031 
L 60.588082 55.588193 
L 61.429651 55.225002 
L 62.511669 54.550672 
L 62.992565 54.397262 
L 64.555479 54.548771 
L 66.719515 55.601608 
L 67.921756 55.836338 
L 70.686912 55.865123 
L 77.659914 55.644236 
L 83.31045 55.210325 
L 87.878968 54.673792 
L 91.245245 54.023219 
L 92.687935 53.572711 
L 93.890177 52.321575 
L 94.371074 51.819792 
L 96.775557 50.991423 
L 98.338471 50.245124 
L 104.710352 46.255788 
L 108.196853 43.532736 
L 109.639543 42.722734 
L 110.962009 42.318922 
L 111.803578 42.257146 
L 112.524923 42.348325 
L 113.246268 42.57328 
L 114.087837 43.008254 
L 115.049631 43.724765 
L 116.251872 44.890978 
L 118.536132 47.162605 
L 119.497925 47.584698 
L 120.21927 47.590153 
L 121.181063 47.162544 
L 122.503529 46.15585 
L 124.427116 44.576203 
L 125.99003 43.5682 
L 127.673168 42.76872 
L 129.716979 42.056005 
L 132.361911 41.383943 
L 134.766394 41.007786 
L 137.050654 40.898588 
L 139.81581 41.062717 
L 143.783207 41.578392 
L 147.269708 42.20485 
L 149.073071 42.729173 
L 150.876433 43.514355 
L 154.122486 45.101879 
L 155.324727 45.332014 
L 158.811228 45.578352 
L 160.374143 45.341912 
L 160.374143 45.341912 
" style="fill:none;stroke:#1f77b4;stroke-linecap:square;stroke-width:1.5;"/>
   </g>
   <g id="line2d_11">
    <path clip-path="url(#p1daca169d6)" d="M 40.270197 9.718326 
L 40.991542 9.674339 
L 41.111766 9.872455 
L 41.472439 12.452955 
L 41.833111 17.051754 
L 42.07356 18.735857 
L 42.554456 20.813944 
L 42.794905 21.664342 
L 43.396026 22.369409 
L 43.51625 21.759209 
L 43.876922 15.340041 
L 44.237595 12.298722 
L 44.357819 11.932676 
L 45.079164 12.421202 
L 45.439837 13.599996 
L 46.521854 18.295765 
L 46.762302 19.383085 
L 47.724096 18.841778 
L 48.926337 18.712141 
L 49.28701 18.791311 
L 50.128579 19.378925 
L 51.210597 20.786464 
L 52.893735 23.47682 
L 53.735304 25.370957 
L 54.216201 26.397573 
L 55.05777 27.53651 
L 55.538667 27.889617 
L 55.899339 28.764899 
L 56.620684 31.230356 
L 57.221805 34.04018 
L 57.822926 31.80059 
L 58.784719 29.182847 
L 59.025168 30.068338 
L 59.506064 32.922237 
L 59.746513 34.231496 
L 60.347634 36.613644 
L 60.708306 18.43227 
L 61.068979 13.667356 
L 61.309427 12.576872 
L 61.910548 14.415515 
L 62.030772 14.861406 
L 62.872341 13.788084 
L 63.593686 14.531181 
L 63.954359 15.464202 
L 64.675704 18.041766 
L 65.276825 20.339964 
L 65.637497 14.018919 
L 65.99817 10.998296 
L 66.118394 10.917555 
L 66.479066 13.870048 
L 66.719515 17.162732 
L 66.839739 19.881114 
L 66.959963 20.083885 
L 67.44086 17.164001 
L 67.681308 16.16052 
L 68.04198 19.732032 
L 68.282429 24.389966 
L 68.402653 29.645694 
L 68.522877 43.145053 
L 68.88355 35.767771 
L 69.244222 32.544192 
L 69.604895 31.560621 
L 70.085791 30.649925 
L 70.446464 32.666637 
L 70.807136 35.854309 
L 71.047585 37.768648 
L 71.528481 40.957716 
L 71.648705 42.111407 
L 71.76893 41.719104 
L 72.129602 37.78416 
L 72.490275 35.421328 
L 72.730723 35.335338 
L 73.331844 35.492543 
L 73.812741 38.356222 
L 74.173413 41.312189 
L 74.894758 40.380969 
L 75.736327 36.593125 
L 76.457672 37.994045 
L 76.818345 39.152272 
L 77.419466 41.354603 
L 78.140811 39.15197 
L 78.862156 37.829306 
L 78.98238 37.717195 
L 80.184622 40.397651 
L 80.545294 40.886627 
L 81.026191 39.515932 
L 81.386863 38.604835 
L 82.228432 38.581406 
L 83.070002 40.262645 
L 83.791347 39.756577 
L 84.632916 38.249138 
L 86.075606 39.135162 
L 86.19583 39.221129 
L 87.878968 36.84233 
L 88.720538 36.906195 
L 89.562107 36.263191 
L 90.403676 35.021528 
L 91.485693 34.056397 
L 91.846366 33.791521 
L 92.207038 26.301824 
L 92.808159 18.90221 
L 93.168832 14.461128 
L 93.529504 12.198794 
L 94.250849 11.314513 
L 94.491298 13.050677 
L 94.731746 15.941369 
L 94.972194 21.68719 
L 95.092419 29.592234 
L 95.813764 28.649348 
L 96.535109 17.400416 
L 96.775557 16.066694 
L 97.73735 13.620418 
L 98.218247 12.04757 
L 98.338471 11.93518 
L 98.819368 14.564889 
L 99.18004 17.00279 
L 99.901385 16.899415 
L 100.262058 18.700265 
L 100.742954 22.512179 
L 100.863179 22.368407 
L 102.305869 20.646477 
L 103.027214 15.801319 
L 103.868783 12.311644 
L 103.989007 12.172745 
L 104.590128 14.274885 
L 105.071025 15.949308 
L 105.672145 17.746345 
L 106.874387 17.46245 
L 107.475508 17.472701 
L 108.317077 17.702317 
L 109.519319 18.355622 
L 110.481112 18.814704 
L 111.322681 18.725205 
L 112.164251 17.860351 
L 113.606941 15.047167 
L 114.688958 12.74356 
L 115.650751 11.073356 
L 116.492321 9.971757 
L 117.213666 9.297184 
L 117.935011 8.864395 
L 118.77658 8.660275 
L 119.497925 8.725597 
L 120.339494 9.083512 
L 121.541736 9.746802 
L 121.782184 9.96855 
L 126.711375 17.683561 
L 128.154065 19.264238 
L 130.077652 20.471979 
L 136.329309 23.40087 
L 137.892223 23.679478 
L 139.334913 23.620205 
L 142.340517 23.070926 
L 144.264104 22.516673 
L 146.187691 21.59894 
L 147.630381 20.699755 
L 149.193295 19.226892 
L 151.477554 16.481246 
L 152.198899 11.323674 
L 152.319123 10.780439 
L 153.040468 11.249155 
L 153.160692 11.075276 
L 153.761813 8.466948 
L 154.24271 7.101977 
L 154.723607 6.045455 
L 155.204503 6.954305 
L 155.805624 8.512304 
L 157.12809 12.91867 
L 157.969659 9.184948 
L 158.57078 11.751176 
L 158.811228 12.916628 
L 159.532573 13.728408 
L 160.374143 8.864308 
L 160.374143 8.864308 
" style="fill:none;stroke:#ff7f0e;stroke-linecap:square;stroke-width:1.5;"/>
   </g>
   <g id="line2d_12">
    <path clip-path="url(#p1daca169d6)" d="M 40.270197 45.347865 
L 41.712887 45.588568 
L 44.357819 45.892315 
L 45.800509 46.090005 
L 47.84432 46.07998 
L 52.653287 46.123642 
L 56.50046 46.416134 
L 61.189203 46.780854 
L 62.992565 46.789744 
L 65.397049 47.148166 
L 70.686912 47.579177 
L 74.413861 47.662533 
L 78.621707 47.534509 
L 83.550898 47.141573 
L 90.764348 46.591544 
L 93.769953 46.362142 
L 94.731746 46.265113 
L 100.262058 46.499249 
L 105.912594 46.777294 
L 110.000216 46.589603 
L 113.126044 46.52681 
L 115.169855 46.719177 
L 117.213666 47.15745 
L 121.421512 48.150004 
L 122.383305 48.183655 
L 123.345098 48.074711 
L 125.148461 47.54578 
L 128.394513 46.159056 
L 130.919221 45.212641 
L 133.443929 44.509715 
L 136.569757 43.874459 
L 140.41693 43.309159 
L 142.941638 43.146014 
L 144.865225 43.237588 
L 146.428139 43.499199 
L 148.111277 43.971568 
L 150.515761 44.870871 
L 152.198899 45.420395 
L 153.040468 45.523671 
L 154.122486 45.49979 
L 157.488762 45.046684 
L 158.691004 45.092634 
L 160.374143 45.221235 
L 160.374143 45.221235 
" style="fill:none;stroke:#2ca02c;stroke-linecap:square;stroke-width:1.5;"/>
   </g>
   <g id="line2d_13">
    <path clip-path="url(#p1daca169d6)" d="M 40.270197 11.351403 
L 40.991542 11.341036 
L 41.111766 11.560771 
L 41.472439 14.433579 
L 41.712887 17.579659 
L 41.953336 21.774602 
L 42.554456 24.131658 
L 42.794905 24.832928 
L 43.396026 24.959078 
L 43.51625 24.001992 
L 43.756698 18.115557 
L 44.117371 14.131497 
L 44.357819 12.865854 
L 45.079164 13.665976 
L 45.439837 15.166846 
L 46.040957 18.904804 
L 46.40163 21.70199 
L 46.882527 26.23843 
L 48.445441 27.391225 
L 49.527458 27.845638 
L 50.369027 27.948377 
L 53.374632 28.061418 
L 54.937546 28.489362 
L 56.50046 29.123861 
L 57.94315 29.986891 
L 60.347634 31.739135 
L 60.82853 18.32373 
L 61.189203 14.80171 
L 61.309427 14.877281 
L 61.790324 17.552132 
L 62.030772 19.524257 
L 62.872341 16.974259 
L 63.593686 16.349002 
L 63.71391 16.41446 
L 64.435255 17.708833 
L 64.795928 20.054651 
L 65.276825 25.067251 
L 65.517273 18.677912 
L 65.877945 14.554232 
L 65.99817 13.632173 
L 66.118394 13.577877 
L 66.479066 17.249033 
L 66.719515 22.174383 
L 66.839739 28.180438 
L 66.959963 27.44694 
L 67.320635 20.791953 
L 67.681308 17.767643 
L 68.04198 20.881063 
L 68.282429 24.487484 
L 68.522877 31.359355 
L 68.643101 31.344434 
L 70.085791 31.258797 
L 73.452068 31.602255 
L 74.293637 31.798588 
L 75.135206 31.754862 
L 76.097 31.902254 
L 78.261035 31.770064 
L 79.583501 31.529511 
L 80.064397 31.56666 
L 81.386863 31.709273 
L 83.791347 31.926667 
L 86.075606 32.273074 
L 86.556502 32.334888 
L 91.485693 33.303532 
L 91.846366 33.34567 
L 92.207038 28.110223 
L 92.687935 24.041586 
L 93.048608 18.330948 
L 93.40928 15.448709 
L 93.649728 14.955457 
L 94.250849 14.582934 
L 94.491298 16.338951 
L 94.731746 19.244147 
L 94.972194 25.050939 
L 95.092419 33.244456 
L 95.813764 33.094911 
L 96.655333 20.782946 
L 96.895781 20.160098 
L 97.496902 19.200836 
L 98.098023 16.772128 
L 98.338471 16.257714 
L 98.819368 19.100967 
L 99.18004 21.898395 
L 99.901385 22.277985 
L 100.262058 24.584189 
L 100.62273 28.6103 
L 100.742954 30.495363 
L 102.305869 29.77405 
L 102.786765 24.164218 
L 103.50811 19.538463 
L 103.868783 17.913406 
L 103.989007 17.76002 
L 104.469904 20.096531 
L 105.311473 25.985947 
L 105.672145 29.140027 
L 112.164251 28.11416 
L 113.126044 27.622796 
L 114.087837 26.800714 
L 114.688958 26.11022 
L 116.973217 22.843534 
L 118.295683 20.952656 
L 119.618149 19.428516 
L 120.820391 18.214278 
L 121.181063 16.701374 
L 121.66196 14.937549 
L 121.902408 15.44705 
L 122.623753 17.343786 
L 123.946219 17.409357 
L 124.54734 17.494099 
L 125.509133 17.795031 
L 126.470927 18.268585 
L 127.793393 19.173915 
L 131.640566 21.972016 
L 133.083256 22.628722 
L 134.766394 23.013755 
L 136.689981 23.122917 
L 140.897827 23.049676 
L 142.340517 22.886157 
L 143.182086 22.63265 
L 143.903431 22.265324 
L 144.624776 21.746217 
L 145.706794 20.716481 
L 146.668587 19.620063 
L 148.47195 17.424232 
L 149.91464 15.957827 
L 151.116881 15.161177 
L 151.477554 14.972175 
L 152.319123 10.792665 
L 153.040468 11.557383 
L 153.160692 11.464114 
L 153.761813 9.275656 
L 154.24271 8.097354 
L 154.723607 7.172624 
L 155.204503 8.297418 
L 155.6854 9.808611 
L 156.166297 12.084863 
L 157.12809 17.568665 
L 157.849435 12.35547 
L 157.969659 11.898772 
L 158.450556 14.686814 
L 158.931452 17.820397 
L 159.532573 18.789466 
L 160.133694 12.687692 
L 160.374143 11.234924 
L 160.374143 11.234924 
" style="fill:none;stroke:#d62728;stroke-linecap:square;stroke-width:1.5;"/>
   </g>
   <g id="line2d_14">
    <path clip-path="url(#p1daca169d6)" d="M 40.270197 93.630416 
L 41.352215 93.673312 
L 47.363423 95.478061 
L 55.05777 98.063527 
L 61.670099 100.539343 
L 69.364446 103.693993 
L 83.791347 109.600318 
L 87.518296 110.693919 
L 90.163228 111.248124 
L 92.808159 111.58943 
L 95.933988 111.753463 
L 99.901385 111.662059 
L 103.989007 111.307239 
L 107.114835 110.811763 
L 109.759767 110.135223 
L 115.530527 108.509844 
L 117.574338 108.250384 
L 119.618149 108.204825 
L 129.115858 108.290285 
L 133.323704 107.881793 
L 136.569757 107.362535 
L 142.821414 106.283545 
L 144.865225 106.22535 
L 146.307915 106.362882 
L 147.870829 106.69355 
L 149.674191 107.297015 
L 153.160692 108.546611 
L 154.603382 108.664162 
L 155.324727 108.56829 
L 156.286521 108.306376 
L 157.849435 107.620349 
L 160.133694 106.699093 
L 160.374143 106.620205 
L 160.374143 106.620205 
" style="fill:none;stroke:#9467bd;stroke-linecap:square;stroke-width:1.5;"/>
   </g>
   <g id="line2d_15">
    <path clip-path="url(#p1daca169d6)" d="M 40.270197 111.256647 
L 41.231991 110.765321 
L 43.51625 110.877283 
L 47.84432 111.476136 
L 50.248803 112.067801 
L 54.095977 113.266834 
L 56.981357 114.452158 
L 60.227409 116.026121 
L 62.992565 117.65814 
L 65.757721 119.487405 
L 69.003774 121.954478 
L 73.331844 125.300566 
L 75.255431 126.405786 
L 76.457672 126.824045 
L 77.419466 126.954545 
L 78.741931 126.817792 
L 79.703725 126.523827 
L 81.026191 125.886214 
L 82.709329 124.8652 
L 85.113812 123.205581 
L 89.08121 120.603473 
L 92.567711 118.61884 
L 96.29466 116.82318 
L 100.62273 114.968385 
L 109.519319 111.455846 
L 111.322681 111.007052 
L 113.126044 110.808219 
L 114.688958 110.86716 
L 116.372097 111.175699 
L 121.301287 112.319624 
L 122.623753 112.318611 
L 124.54734 112.017825 
L 127.43272 111.270445 
L 130.558549 110.567843 
L 132.963032 110.298161 
L 135.006843 110.377458 
L 136.449533 110.6438 
L 138.012447 111.170512 
L 139.575361 111.967052 
L 141.2585 113.115608 
L 143.903431 115.272655 
L 145.105673 116.147054 
L 146.428139 116.687968 
L 147.02926 116.755694 
L 147.870829 116.663627 
L 148.832622 116.332503 
L 149.91464 115.773007 
L 153.040468 113.922403 
L 154.483158 113.327462 
L 155.925848 112.945439 
L 160.374143 112.010556 
L 160.374143 112.010556 
" style="fill:none;stroke:#8c564b;stroke-linecap:square;stroke-width:1.5;"/>
   </g>
   <g id="patch_3">
    <path d="M 34.265 133 
L 34.265 -0 
" style="fill:none;stroke:#000000;stroke-linecap:square;stroke-linejoin:miter;stroke-width:1.5;"/>
   </g>
   <g id="patch_4">
    <path d="M 34.265 133 
L 166.37934 133 
" style="fill:none;stroke:#000000;stroke-linecap:square;stroke-linejoin:miter;stroke-width:1.5;"/>
   </g>
   <g id="legend_1">
    <g id="line2d_16">
     <path d="M 173.57934 11.28 
L 189.57934 11.28 
" style="fill:none;stroke:#1f77b4;stroke-linecap:square;stroke-width:1.5;"/>
    </g>
    <g id="line2d_17"/>
    <g id="text_12">
     <!-- $\sigma_{11}^2, foot$ -->
     <g transform="translate(195.97934 14.08)scale(0.08 -0.08)">
      <defs>
       <path d="M 60.59375 44.78125 
L 49.21875 44.78125 
Q 55.609375 38.1875 55.71875 27 
Q 55.71875 14.59375 49.421875 6.984375 
Q 43.015625 -0.78125 30.515625 -0.984375 
Q 17.921875 -0.78125 11.71875 7.171875 
Q 5.421875 14.984375 5.421875 27 
Q 5.515625 38.578125 12.3125 45.703125 
Q 19 52.875 30.515625 52.984375 
Q 35.40625 52.875 38.1875 52 
L 60.59375 52 
z
M 46.09375 25.875 
Q 46.09375 33.203125 42.671875 39.3125 
Q 39.109375 45.609375 30.515625 45.796875 
Q 22.015625 45.609375 18.5 39.59375 
Q 14.890625 33.59375 14.984375 25.875 
Q 14.984375 17.484375 19.1875 12.015625 
Q 23.1875 6.296875 30.515625 6.203125 
Q 38.578125 6.296875 42.390625 12.3125 
Q 46.09375 18.109375 46.09375 25.875 
z
" id="Helvetica-963"/>
       <path d="M 8.296875 -10.203125 
Q 11.671875 -9.625 13.03125 -5.46875 
Q 13.765625 -3.265625 13.765625 -1.21875 
Q 13.765625 -0.875 13.734375 -0.609375 
Q 13.71875 -0.34375 13.625 0 
L 8.296875 0 
L 8.296875 10.640625 
L 18.75 10.640625 
L 18.75 0.78125 
Q 18.75 -5.03125 16.40625 -9.421875 
Q 14.0625 -13.8125 8.296875 -14.84375 
z
" id="Helvetica-44"/>
       <path d="M 8.640625 60.25 
Q 8.84375 65.71875 10.546875 68.265625 
Q 13.625 72.75 22.40625 72.75 
Q 23.25 72.75 24.125 72.703125 
Q 25 72.65625 26.125 72.5625 
L 26.125 64.546875 
Q 24.75 64.65625 24.140625 64.671875 
Q 23.53125 64.703125 23 64.703125 
Q 19 64.703125 18.21875 62.625 
Q 17.4375 60.546875 17.4375 52.046875 
L 26.125 52.046875 
L 26.125 45.125 
L 17.328125 45.125 
L 17.328125 0 
L 8.640625 0 
L 8.640625 45.125 
L 1.375 45.125 
L 1.375 52.046875 
L 8.640625 52.046875 
L 8.640625 60.25 
z
" id="Helvetica-102"/>
       <path d="M 8.203125 66.890625 
L 17.09375 66.890625 
L 17.09375 52.296875 
L 25.4375 52.296875 
L 25.4375 45.125 
L 17.09375 45.125 
L 17.09375 10.984375 
Q 17.09375 8.25 18.953125 7.328125 
Q 19.96875 6.78125 22.359375 6.78125 
Q 23 6.78125 23.734375 6.8125 
Q 24.46875 6.84375 25.4375 6.9375 
L 25.4375 0 
Q 23.921875 -0.4375 22.28125 -0.625 
Q 20.65625 -0.828125 18.75 -0.828125 
Q 12.59375 -0.828125 10.390625 2.3125 
Q 8.203125 5.46875 8.203125 10.5 
L 8.203125 45.125 
L 1.125 45.125 
L 1.125 52.296875 
L 8.203125 52.296875 
z
" id="Helvetica-116"/>
      </defs>
      <use transform="translate(0 0.271875)" xlink:href="#Helvetica-963"/>
      <use transform="translate(61.99918 36.879688)scale(0.7)" xlink:href="#Helvetica-50"/>
      <use transform="translate(61.99918 -25.876562)scale(0.7)" xlink:href="#Helvetica-49"/>
      <use transform="translate(100.929844 -25.876562)scale(0.7)" xlink:href="#Helvetica-49"/>
      <use transform="translate(142.475352 0.271875)" xlink:href="#Helvetica-44"/>
      <use transform="translate(186.918711 0.271875)" xlink:href="#Helvetica-102"/>
      <use transform="translate(214.701914 0.271875)" xlink:href="#Helvetica-111"/>
      <use transform="translate(270.317148 0.271875)" xlink:href="#Helvetica-111"/>
      <use transform="translate(325.932383 0.271875)" xlink:href="#Helvetica-116"/>
     </g>
    </g>
    <g id="line2d_18">
     <path d="M 173.57934 24.32 
L 189.57934 24.32 
" style="fill:none;stroke:#ff7f0e;stroke-linecap:square;stroke-width:1.5;"/>
    </g>
    <g id="line2d_19"/>
    <g id="text_13">
     <!-- $\sigma_{22}^2, foot\ velocity$ -->
     <g transform="translate(195.97934 27.12)scale(0.08 -0.08)">
      <defs>
       <path d="M 39.109375 52.296875 
L 48.828125 52.296875 
Q 46.96875 47.265625 40.578125 29.34375 
Q 35.796875 15.875 32.5625 7.375 
Q 24.953125 -12.640625 21.828125 -17.03125 
Q 18.703125 -21.4375 11.078125 -21.4375 
Q 9.234375 -21.4375 8.234375 -21.28125 
Q 7.234375 -21.140625 5.765625 -20.75 
L 5.765625 -12.75 
Q 8.0625 -13.375 9.078125 -13.515625 
Q 10.109375 -13.671875 10.890625 -13.671875 
Q 13.328125 -13.671875 14.46875 -12.859375 
Q 15.625 -12.0625 16.40625 -10.890625 
Q 16.65625 -10.5 18.15625 -6.875 
Q 19.671875 -3.265625 20.359375 -1.515625 
L 1.03125 52.296875 
L 10.984375 52.296875 
L 25 9.71875 
z
M 24.953125 53.5625 
z
" id="Helvetica-121"/>
      </defs>
      <use transform="translate(0 0.271875)" xlink:href="#Helvetica-963"/>
      <use transform="translate(61.99918 36.879688)scale(0.7)" xlink:href="#Helvetica-50"/>
      <use transform="translate(61.99918 -25.876562)scale(0.7)" xlink:href="#Helvetica-50"/>
      <use transform="translate(100.929844 -25.876562)scale(0.7)" xlink:href="#Helvetica-50"/>
      <use transform="translate(142.475352 0.271875)" xlink:href="#Helvetica-44"/>
      <use transform="translate(186.918711 0.271875)" xlink:href="#Helvetica-102"/>
      <use transform="translate(214.701914 0.271875)" xlink:href="#Helvetica-111"/>
      <use transform="translate(270.317148 0.271875)" xlink:href="#Helvetica-111"/>
      <use transform="translate(325.932383 0.271875)" xlink:href="#Helvetica-116"/>
      <use transform="translate(381.482235 0.271875)" xlink:href="#Helvetica-118"/>
      <use transform="translate(431.482235 0.271875)" xlink:href="#Helvetica-101"/>
      <use transform="translate(487.09747 0.271875)" xlink:href="#Helvetica-108"/>
      <use transform="translate(509.314267 0.271875)" xlink:href="#Helvetica-111"/>
      <use transform="translate(564.929501 0.271875)" xlink:href="#Helvetica-99"/>
      <use transform="translate(614.929501 0.271875)" xlink:href="#Helvetica-105"/>
      <use transform="translate(637.146298 0.271875)" xlink:href="#Helvetica-116"/>
      <use transform="translate(664.929501 0.271875)" xlink:href="#Helvetica-121"/>
     </g>
    </g>
    <g id="line2d_20">
     <path d="M 173.57934 37.36 
L 189.57934 37.36 
" style="fill:none;stroke:#2ca02c;stroke-linecap:square;stroke-width:1.5;"/>
    </g>
    <g id="line2d_21"/>
    <g id="text_14">
     <!-- $\sigma_{33}^2, shank$ -->
     <g transform="translate(195.97934 40.16)scale(0.08 -0.08)">
      <defs>
       <path d="M 6.25 71.734375 
L 14.703125 71.734375 
L 14.703125 30.078125 
L 37.25 52.296875 
L 48.484375 52.296875 
L 28.46875 32.71875 
L 49.609375 0 
L 38.375 0 
L 22.078125 26.375 
L 14.703125 19.625 
L 14.703125 0 
L 6.25 0 
z
" id="Helvetica-107"/>
      </defs>
      <use transform="translate(0 0.271875)" xlink:href="#Helvetica-963"/>
      <use transform="translate(61.99918 36.879688)scale(0.7)" xlink:href="#Helvetica-50"/>
      <use transform="translate(61.99918 -25.876562)scale(0.7)" xlink:href="#Helvetica-51"/>
      <use transform="translate(100.929844 -25.876562)scale(0.7)" xlink:href="#Helvetica-51"/>
      <use transform="translate(142.475352 0.271875)" xlink:href="#Helvetica-44"/>
      <use transform="translate(186.918711 0.271875)" xlink:href="#Helvetica-115"/>
      <use transform="translate(236.918711 0.271875)" xlink:href="#Helvetica-104"/>
      <use transform="translate(292.533945 0.271875)" xlink:href="#Helvetica-97"/>
      <use transform="translate(348.14918 0.271875)" xlink:href="#Helvetica-110"/>
      <use transform="translate(403.764414 0.271875)" xlink:href="#Helvetica-107"/>
     </g>
    </g>
    <g id="line2d_22">
     <path d="M 173.57934 50.48 
L 189.57934 50.48 
" style="fill:none;stroke:#d62728;stroke-linecap:square;stroke-width:1.5;"/>
    </g>
    <g id="line2d_23"/>
    <g id="text_15">
     <!-- $\sigma_{44}^2, shank\ velocity$ -->
     <g transform="translate(195.97934 53.28)scale(0.08 -0.08)">
      <defs>
       <path d="M 33.0625 24.75 
L 33.0625 56.453125 
L 10.640625 24.75 
z
M 33.203125 0 
L 33.203125 17.09375 
L 2.546875 17.09375 
L 2.546875 25.6875 
L 34.578125 70.125 
L 42 70.125 
L 42 24.75 
L 52.296875 24.75 
L 52.296875 17.09375 
L 42 17.09375 
L 42 0 
z
" id="Helvetica-52"/>
      </defs>
      <use transform="translate(0 0.271875)" xlink:href="#Helvetica-963"/>
      <use transform="translate(61.99918 36.879688)scale(0.7)" xlink:href="#Helvetica-50"/>
      <use transform="translate(61.99918 -25.876562)scale(0.7)" xlink:href="#Helvetica-52"/>
      <use transform="translate(100.929844 -25.876562)scale(0.7)" xlink:href="#Helvetica-52"/>
      <use transform="translate(142.475352 0.271875)" xlink:href="#Helvetica-44"/>
      <use transform="translate(186.918711 0.271875)" xlink:href="#Helvetica-115"/>
      <use transform="translate(236.918711 0.271875)" xlink:href="#Helvetica-104"/>
      <use transform="translate(292.533945 0.271875)" xlink:href="#Helvetica-97"/>
      <use transform="translate(348.14918 0.271875)" xlink:href="#Helvetica-110"/>
      <use transform="translate(403.764414 0.271875)" xlink:href="#Helvetica-107"/>
      <use transform="translate(481.531063 0.271875)" xlink:href="#Helvetica-118"/>
      <use transform="translate(531.531063 0.271875)" xlink:href="#Helvetica-101"/>
      <use transform="translate(587.146298 0.271875)" xlink:href="#Helvetica-108"/>
      <use transform="translate(609.363095 0.271875)" xlink:href="#Helvetica-111"/>
      <use transform="translate(664.978329 0.271875)" xlink:href="#Helvetica-99"/>
      <use transform="translate(714.978329 0.271875)" xlink:href="#Helvetica-105"/>
      <use transform="translate(737.195126 0.271875)" xlink:href="#Helvetica-116"/>
      <use transform="translate(764.978329 0.271875)" xlink:href="#Helvetica-121"/>
     </g>
    </g>
    <g id="line2d_24">
     <path d="M 173.57934 63.52 
L 189.57934 63.52 
" style="fill:none;stroke:#9467bd;stroke-linecap:square;stroke-width:1.5;"/>
    </g>
    <g id="line2d_25"/>
    <g id="text_16">
     <!-- $\sigma_{55}^2, forward\ heel$ -->
     <g transform="translate(195.97934 66.32)scale(0.08 -0.08)">
      <defs>
       <path d="M 10.5 52.296875 
L 20.5625 11.078125 
L 30.765625 52.296875 
L 40.625 52.296875 
L 50.875 11.328125 
L 61.578125 52.296875 
L 70.359375 52.296875 
L 55.171875 0 
L 46.046875 0 
L 35.40625 40.484375 
L 25.09375 0 
L 15.96875 0 
L 0.875 52.296875 
z
" id="Helvetica-119"/>
       <path d="M 12.015625 25.53125 
Q 12.015625 17.140625 15.578125 11.46875 
Q 19.140625 5.8125 27 5.8125 
Q 33.109375 5.8125 37.03125 11.0625 
Q 40.96875 16.3125 40.96875 26.125 
Q 40.96875 36.03125 36.90625 40.796875 
Q 32.859375 45.5625 26.90625 45.5625 
Q 20.265625 45.5625 16.140625 40.484375 
Q 12.015625 35.40625 12.015625 25.53125 
z
M 25.25 53.21875 
Q 31.25 53.21875 35.296875 50.6875 
Q 37.640625 49.21875 40.625 45.5625 
L 40.625 71.96875 
L 49.078125 71.96875 
L 49.078125 0 
L 41.15625 0 
L 41.15625 7.28125 
Q 38.09375 2.4375 33.890625 0.28125 
Q 29.6875 -1.859375 24.265625 -1.859375 
Q 15.53125 -1.859375 9.125 5.484375 
Q 2.734375 12.84375 2.734375 25.046875 
Q 2.734375 36.46875 8.5625 44.84375 
Q 14.40625 53.21875 25.25 53.21875 
z
" id="Helvetica-100"/>
      </defs>
      <use transform="translate(0 0.271875)" xlink:href="#Helvetica-963"/>
      <use transform="translate(61.99918 36.879688)scale(0.7)" xlink:href="#Helvetica-50"/>
      <use transform="translate(61.99918 -25.876562)scale(0.7)" xlink:href="#Helvetica-53"/>
      <use transform="translate(100.929844 -25.876562)scale(0.7)" xlink:href="#Helvetica-53"/>
      <use transform="translate(142.475352 0.271875)" xlink:href="#Helvetica-44"/>
      <use transform="translate(186.918711 0.271875)" xlink:href="#Helvetica-102"/>
      <use transform="translate(214.701914 0.271875)" xlink:href="#Helvetica-111"/>
      <use transform="translate(270.317148 0.271875)" xlink:href="#Helvetica-114"/>
      <use transform="translate(303.61793 0.271875)" xlink:href="#Helvetica-119"/>
      <use transform="translate(375.834727 0.271875)" xlink:href="#Helvetica-97"/>
      <use transform="translate(431.449961 0.271875)" xlink:href="#Helvetica-114"/>
      <use transform="translate(464.750742 0.271875)" xlink:href="#Helvetica-100"/>
      <use transform="translate(548.132626 0.271875)" xlink:href="#Helvetica-104"/>
      <use transform="translate(603.74786 0.271875)" xlink:href="#Helvetica-101"/>
      <use transform="translate(659.363095 0.271875)" xlink:href="#Helvetica-101"/>
      <use transform="translate(714.978329 0.271875)" xlink:href="#Helvetica-108"/>
     </g>
    </g>
    <g id="line2d_26">
     <path d="M 173.57934 76.64 
L 189.57934 76.64 
" style="fill:none;stroke:#8c564b;stroke-linecap:square;stroke-width:1.5;"/>
    </g>
    <g id="line2d_27"/>
    <g id="text_17">
     <!-- $\sigma_{66}^2, upward\ heel$ -->
     <g transform="translate(195.97934 79.44)scale(0.08 -0.08)">
      <defs>
       <path d="M 29.25 70.21875 
Q 40.96875 70.21875 45.578125 64.140625 
Q 50.203125 58.0625 50.203125 51.609375 
L 41.5 51.609375 
Q 40.71875 55.765625 39.015625 58.109375 
Q 35.84375 62.5 29.390625 62.5 
Q 22.015625 62.5 17.671875 55.6875 
Q 13.328125 48.875 12.84375 36.1875 
Q 15.875 40.625 20.453125 42.828125 
Q 24.65625 44.78125 29.828125 44.78125 
Q 38.625 44.78125 45.15625 39.15625 
Q 51.703125 33.546875 51.703125 22.40625 
Q 51.703125 12.890625 45.5 5.53125 
Q 39.3125 -1.8125 27.828125 -1.8125 
Q 18.015625 -1.8125 10.890625 5.640625 
Q 3.765625 13.09375 3.765625 30.71875 
Q 3.765625 43.75 6.9375 52.828125 
Q 13.03125 70.21875 29.25 70.21875 
z
M 28.609375 6 
Q 35.546875 6 38.984375 10.65625 
Q 42.4375 15.328125 42.4375 21.6875 
Q 42.4375 27.046875 39.359375 31.90625 
Q 36.28125 36.765625 28.171875 36.765625 
Q 22.515625 36.765625 18.234375 33 
Q 13.96875 29.25 13.96875 21.6875 
Q 13.96875 15.046875 17.84375 10.515625 
Q 21.734375 6 28.609375 6 
z
" id="Helvetica-54"/>
       <path d="M 15.234375 52.296875 
L 15.234375 17.578125 
Q 15.234375 13.578125 16.5 11.03125 
Q 18.84375 6.34375 25.25 6.34375 
Q 34.421875 6.34375 37.75 14.546875 
Q 39.546875 18.953125 39.546875 26.609375 
L 39.546875 52.296875 
L 48.34375 52.296875 
L 48.34375 0 
L 40.046875 0 
L 40.140625 7.71875 
Q 38.421875 4.734375 35.890625 2.6875 
Q 30.859375 -1.421875 23.6875 -1.421875 
Q 12.5 -1.421875 8.453125 6.0625 
Q 6.25 10.0625 6.25 16.75 
L 6.25 52.296875 
z
M 27.296875 53.5625 
z
" id="Helvetica-117"/>
       <path d="M 28.515625 5.90625 
Q 34.671875 5.90625 38.75 11.0625 
Q 42.828125 16.21875 42.828125 26.46875 
Q 42.828125 32.71875 41.015625 37.203125 
Q 37.59375 45.84375 28.515625 45.84375 
Q 19.390625 45.84375 16.015625 36.71875 
Q 14.203125 31.84375 14.203125 24.3125 
Q 14.203125 18.265625 16.015625 14.015625 
Q 19.4375 5.90625 28.515625 5.90625 
z
M 5.765625 52.046875 
L 14.3125 52.046875 
L 14.3125 45.125 
Q 16.9375 48.6875 20.0625 50.640625 
Q 24.515625 53.5625 30.515625 53.5625 
Q 39.40625 53.5625 45.609375 46.75 
Q 51.8125 39.9375 51.8125 27.296875 
Q 51.8125 10.203125 42.875 2.875 
Q 37.203125 -1.765625 29.6875 -1.765625 
Q 23.78125 -1.765625 19.78125 0.828125 
Q 17.4375 2.296875 14.546875 5.859375 
L 14.546875 -20.84375 
L 5.765625 -20.84375 
z
" id="Helvetica-112"/>
      </defs>
      <use transform="translate(0 0.271875)" xlink:href="#Helvetica-963"/>
      <use transform="translate(61.99918 36.879688)scale(0.7)" xlink:href="#Helvetica-50"/>
      <use transform="translate(61.99918 -25.876562)scale(0.7)" xlink:href="#Helvetica-54"/>
      <use transform="translate(100.929844 -25.876562)scale(0.7)" xlink:href="#Helvetica-54"/>
      <use transform="translate(142.475352 0.271875)" xlink:href="#Helvetica-44"/>
      <use transform="translate(186.918711 0.271875)" xlink:href="#Helvetica-117"/>
      <use transform="translate(242.533945 0.271875)" xlink:href="#Helvetica-112"/>
      <use transform="translate(298.14918 0.271875)" xlink:href="#Helvetica-119"/>
      <use transform="translate(370.365977 0.271875)" xlink:href="#Helvetica-97"/>
      <use transform="translate(425.981211 0.271875)" xlink:href="#Helvetica-114"/>
      <use transform="translate(459.281992 0.271875)" xlink:href="#Helvetica-100"/>
      <use transform="translate(542.663876 0.271875)" xlink:href="#Helvetica-104"/>
      <use transform="translate(598.27911 0.271875)" xlink:href="#Helvetica-101"/>
      <use transform="translate(653.894345 0.271875)" xlink:href="#Helvetica-101"/>
      <use transform="translate(709.509579 0.271875)" xlink:href="#Helvetica-108"/>
     </g>
    </g>
   </g>
  </g>
 </g>
 <defs>
  <clipPath id="p1daca169d6">
   <rect height="133" width="132.11434" x="34.265" y="-0"/>
  </clipPath>
 </defs>
</svg>
