<?xml version="1.0" encoding="UTF-8" standalone="no"?>
<!-- Created with Inkscape (http://www.inkscape.org/) -->

<svg
   xmlns:dc="http://purl.org/dc/elements/1.1/"
   xmlns:cc="http://creativecommons.org/ns#"
   xmlns:rdf="http://www.w3.org/1999/02/22-rdf-syntax-ns#"
   xmlns:svg="http://www.w3.org/2000/svg"
   xmlns="http://www.w3.org/2000/svg"
   xmlns:sodipodi="http://sodipodi.sourceforge.net/DTD/sodipodi-0.dtd"
   xmlns:inkscape="http://www.inkscape.org/namespaces/inkscape"
   width="3.5in"
   height="1.8in"
   viewBox="0 0 88.900002 45.719998"
   version="1.1"
   id="svg11099"
   inkscape:version="0.92.3 (2405546, 2018-03-11)"
   sodipodi:docname="jointDefs.svg">
  <defs
     id="defs11093">
    <marker
       inkscape:stockid="Arrow2Send"
       orient="auto"
       refY="0"
       refX="0"
       id="marker2107"
       style="overflow:visible"
       inkscape:isstock="true">
      <path
         id="path2105"
         style="fill:#000000;fill-opacity:1;fill-rule:evenodd;stroke:#000000;stroke-width:0.625;stroke-linejoin:round;stroke-opacity:1"
         d="M 8.7185878,4.0337352 -2.2072895,0.01601326 8.7185884,-4.0017078 c -1.7454984,2.3720609 -1.7354408,5.6174519 -6e-7,8.035443 z"
         transform="matrix(-0.3,0,0,-0.3,0.69,0)"
         inkscape:connector-curvature="0" />
    </marker>
    <marker
       inkscape:stockid="Arrow2Sstart"
       orient="auto"
       refY="0"
       refX="0"
       id="marker1921"
       style="overflow:visible"
       inkscape:isstock="true">
      <path
         id="path1919"
         style="fill:#000000;fill-opacity:1;fill-rule:evenodd;stroke:#000000;stroke-width:0.625;stroke-linejoin:round;stroke-opacity:1"
         d="M 8.7185878,4.0337352 -2.2072895,0.01601326 8.7185884,-4.0017078 c -1.7454984,2.3720609 -1.7354408,5.6174519 -6e-7,8.035443 z"
         transform="matrix(0.3,0,0,0.3,-0.69,0)"
         inkscape:connector-curvature="0" />
    </marker>
    <marker
       inkscape:stockid="Arrow2Sstart"
       orient="auto"
       refY="0"
       refX="0"
       id="Arrow2Sstart"
       style="overflow:visible"
       inkscape:isstock="true">
      <path
         id="path1585"
         style="fill:#000000;fill-opacity:1;fill-rule:evenodd;stroke:#000000;stroke-width:0.625;stroke-linejoin:round;stroke-opacity:1"
         d="M 8.7185878,4.0337352 -2.2072895,0.01601326 8.7185884,-4.0017078 c -1.7454984,2.3720609 -1.7354408,5.6174519 -6e-7,8.035443 z"
         transform="matrix(0.3,0,0,0.3,-0.69,0)"
         inkscape:connector-curvature="0" />
    </marker>
    <marker
       inkscape:stockid="Arrow2Send"
       orient="auto"
       refY="0"
       refX="0"
       id="Arrow2Send"
       style="overflow:visible"
       inkscape:isstock="true">
      <path
         id="path1588"
         style="fill:#000000;fill-opacity:1;fill-rule:evenodd;stroke:#000000;stroke-width:0.625;stroke-linejoin:round;stroke-opacity:1"
         d="M 8.7185878,4.0337352 -2.2072895,0.01601326 8.7185884,-4.0017078 c -1.7454984,2.3720609 -1.7354408,5.6174519 -6e-7,8.035443 z"
         transform="matrix(-0.3,0,0,-0.3,0.69,0)"
         inkscape:connector-curvature="0" />
    </marker>
    <clipPath
       clipPathUnits="userSpaceOnUse"
       id="clipPath1857">
      <path
         style="fill:#f57900;stroke:none;stroke-width:0.26458332px;stroke-linecap:butt;stroke-linejoin:miter;stroke-opacity:1"
         d="m 354.93088,232.81931 -2.3752,-0.22037 0.3986,12.61007 4.30183,4.00903 21.12133,5.63722 0.32179,1.82964 2.12381,-0.099 0.026,-14.66368 -18.10742,-5.91962 -7.33293,-0.0366 z"
         id="path1859"
         inkscape:connector-curvature="0" />
    </clipPath>
    <clipPath
       clipPathUnits="userSpaceOnUse"
       id="clipPath1863">
      <path
         style="fill:#fcaf3e;stroke:none;stroke-width:0.26458332px;stroke-linecap:butt;stroke-linejoin:miter;stroke-opacity:1"
         d="m 354.91982,239.11058 -1.87089,-0.0668 0.0668,4.47677 2.7395,4.81085 3.67496,0.93544 18.84251,5.81311 v 5.14494 l 2.59779,0.0358 c -0.40548,-3.47401 -0.3724,-7.2813 -0.31285,-10.71583 l -0.0957,-0.15239 c 0.10216,-1.59335 -0.003,-2.32098 0.60198,-5.42326 l -0.62364,-0.41449 c 0,0 0.22822,-1.00234 0.37152,-1.50415 l -18.50842,-6.48128 -5.81311,4.54359 z"
         id="path1865"
         inkscape:connector-curvature="0"
         sodipodi:nodetypes="cccccccccccccccc" />
    </clipPath>
    <clipPath
       clipPathUnits="userSpaceOnUse"
       id="clipPath2088">
      <path
         sodipodi:nodetypes="ccccccccsscccc"
         inkscape:connector-curvature="0"
         id="path2090"
         d="m 97.94271,104.23748 -1.536801,0.73499 6.548111,12.89575 3.0736,1.33635 1.9377,-0.26727 20.57976,7.14946 4.47677,8.35217 1.33633,-1.40316 c -2.51126,-5.10072 -5.50968,-9.53373 -8.00674,-14.23622 -0.78274,-1.47406 -1.8942,-1.69893 -2.54796,-3.25481 -0.55817,-1.32833 -0.68022,-3.97268 -1.10323,-5.39966 l -12.59677,-3.90308 -8.21854,3.80859 z"
         style="fill:#e9b96e;stroke:none;stroke-width:0.26458332px;stroke-linecap:butt;stroke-linejoin:miter;stroke-opacity:1" />
    </clipPath>
    <clipPath
       id="pd55403c534">
      <rect
         height="388.07999"
         width="613.79999"
         x="99"
         y="60.48"
         id="rect348" />
    </clipPath>
    <clipPath
       id="clipPath1598">
      <rect
         height="388.07999"
         width="613.79999"
         x="99"
         y="60.48"
         id="rect1596" />
    </clipPath>
    <path
       d="M 0,0 V 3.5"
       id="m8c95307fd0"
       style="stroke:#000000;stroke-width:0.80000001;stroke-linecap:butt;stroke-linejoin:round"
       inkscape:connector-curvature="0" />
    <path
       d="m 31.78125,66.40625 q -7.609375,0 -11.453125,-7.5 Q 16.5,51.421875 16.5,36.375 q 0,-14.984375 3.828125,-22.484375 3.84375,-7.5 11.453125,-7.5 7.671875,0 11.5,7.5 3.84375,7.5 3.84375,22.484375 0,15.046875 -3.84375,22.53125 -3.828125,7.5 -11.5,7.5 z m 0,7.8125 q 12.265625,0 18.734375,-9.703125 6.46875,-9.6875 6.46875,-28.140625 0,-18.40625 -6.46875,-28.109375 -6.46875,-9.6875 -18.734375,-9.6875 -12.25,0 -18.71875,9.6875 Q 6.59375,17.96875 6.59375,36.375 q 0,18.453125 6.46875,28.140625 6.46875,9.703125 18.71875,9.703125 z"
       id="DejaVuSans-48"
       inkscape:connector-curvature="0"
       style="stroke-linecap:butt;stroke-linejoin:round" />
    <path
       d="M 10.6875,12.40625 H 21 V 0 H 10.6875 Z"
       id="DejaVuSans-46"
       inkscape:connector-curvature="0"
       style="stroke-linecap:butt;stroke-linejoin:round" />
    <path
       d="M 19.1875,8.296875 H 53.609375 V 0 H 7.328125 v 8.296875 q 5.609375,5.8125 15.296875,15.59375 9.703125,9.796875 12.1875,12.640625 4.734375,5.3125 6.609375,9 1.890625,3.6875 1.890625,7.25 0,5.8125 -4.078125,9.46875 -4.078125,3.671875 -10.625,3.671875 -4.640625,0 -9.796875,-1.609375 -5.140625,-1.609375 -11,-4.890625 v 9.96875 Q 13.765625,71.78125 18.9375,73 q 5.1875,1.21875 9.484375,1.21875 11.328125,0 18.0625,-5.671875 6.734375,-5.65625 6.734375,-15.125 0,-4.5 -1.6875,-8.53125 Q 49.859375,40.875 45.40625,35.40625 44.1875,33.984375 37.640625,27.21875 31.109375,20.453125 19.1875,8.296875 Z"
       id="DejaVuSans-50"
       inkscape:connector-curvature="0"
       style="stroke-linecap:butt;stroke-linejoin:round" />
    <path
       d="M 37.796875,64.3125 12.890625,25.390625 h 24.90625 z m -2.59375,8.59375 h 12.40625 V 25.390625 h 10.40625 V 17.1875 H 47.609375 V 0 h -9.8125 V 17.1875 H 4.890625 v 9.515625 z"
       id="DejaVuSans-52"
       inkscape:connector-curvature="0"
       style="stroke-linecap:butt;stroke-linejoin:round" />
    <path
       d="m 33.015625,40.375 q -6.640625,0 -10.53125,-4.546875 -3.875,-4.53125 -3.875,-12.4375 0,-7.859375 3.875,-12.4375 3.890625,-4.5625 10.53125,-4.5625 6.640625,0 10.515625,4.5625 3.875,4.578125 3.875,12.4375 0,7.90625 -3.875,12.4375 Q 39.65625,40.375 33.015625,40.375 Z M 52.59375,71.296875 V 62.3125 q -3.71875,1.75 -7.5,2.671875 -3.78125,0.9375 -7.5,0.9375 -9.765625,0 -14.921875,-6.59375 -5.140625,-6.59375 -5.875,-19.921875 2.875,4.25 7.21875,6.515625 4.359375,2.265625 9.578125,2.265625 10.984375,0 17.359375,-6.671875 6.375,-6.65625 6.375,-18.125 0,-11.234375 -6.640625,-18.03125 -6.640625,-6.78125 -17.671875,-6.78125 -12.65625,0 -19.34375,9.6875 -6.6875,9.703125 -6.6875,28.109375 0,17.28125 8.203125,27.5625 8.203125,10.28125 22.015625,10.28125 3.71875,0 7.5,-0.734375 3.78125,-0.734375 7.890625,-2.1875 z"
       id="DejaVuSans-54"
       inkscape:connector-curvature="0"
       style="stroke-linecap:butt;stroke-linejoin:round" />
    <path
       d="m 31.78125,34.625 q -7.03125,0 -11.0625,-3.765625 -4.015625,-3.765625 -4.015625,-10.34375 0,-6.59375 4.015625,-10.359375 4.03125,-3.765625 11.0625,-3.765625 7.03125,0 11.078125,3.78125 4.0625,3.796875 4.0625,10.34375 0,6.578125 -4.03125,10.34375 Q 38.875,34.625 31.78125,34.625 Z m -9.859375,4.1875 Q 15.578125,40.375 12.03125,44.71875 8.5,49.078125 8.5,55.328125 q 0,8.734375 6.21875,13.8125 6.234375,5.078125 17.0625,5.078125 10.890625,0 17.09375,-5.078125 6.203125,-5.078125 6.203125,-13.8125 0,-6.25 -3.546875,-10.609375 Q 48,40.375 41.703125,38.8125 q 7.125,-1.65625 11.09375,-6.5 3.984375,-4.828125 3.984375,-11.796875 0,-10.609375 -6.46875,-16.28125 -6.46875,-5.65625 -18.53125,-5.65625 -12.046875,0 -18.53125,5.65625 -6.46875,5.671875 -6.46875,16.28125 0,6.96875 4,11.796875 4.015625,4.84375 11.140625,6.5 z M 18.3125,54.390625 q 0,-5.65625 3.53125,-8.828125 3.546875,-3.171875 9.9375,-3.171875 6.359375,0 9.9375,3.171875 3.59375,3.171875 3.59375,8.828125 0,5.671875 -3.59375,8.84375 -3.578125,3.171875 -9.9375,3.171875 -6.390625,0 -9.9375,-3.171875 Q 18.3125,60.0625 18.3125,54.390625 Z"
       id="DejaVuSans-56"
       inkscape:connector-curvature="0"
       style="stroke-linecap:butt;stroke-linejoin:round" />
    <path
       d="m 12.40625,8.296875 h 16.109375 v 55.625 L 10.984375,60.40625 v 8.984375 l 17.4375,3.515625 H 38.28125 V 8.296875 H 54.390625 V 0 H 12.40625 Z"
       id="DejaVuSans-49"
       inkscape:connector-curvature="0"
       style="stroke-linecap:butt;stroke-linejoin:round" />
    <path
       d="M 19.671875,64.796875 V 37.40625 h 12.40625 q 6.890625,0 10.640625,3.5625 3.765625,3.5625 3.765625,10.15625 0,6.546875 -3.765625,10.109375 -3.75,3.5625 -10.640625,3.5625 z M 9.8125,72.90625 h 22.265625 q 12.265625,0 18.53125,-5.546875 6.28125,-5.546875 6.28125,-16.234375 0,-10.796875 -6.28125,-16.3125 -6.265625,-5.515625 -18.53125,-5.515625 H 19.671875 V 0 H 9.8125 Z"
       id="DejaVuSans-80"
       inkscape:connector-curvature="0"
       style="stroke-linecap:butt;stroke-linejoin:round" />
    <path
       d="M 54.890625,33.015625 V 0 H 45.90625 v 32.71875 q 0,7.765625 -3.03125,11.609375 -3.03125,3.859375 -9.078125,3.859375 -7.28125,0 -11.484375,-4.640625 -4.203125,-4.625 -4.203125,-12.640625 V 0 h -9.03125 v 75.984375 h 9.03125 V 46.1875 q 3.234375,4.9375 7.59375,7.375 4.375,2.4375 10.09375,2.4375 9.421875,0 14.25,-5.828125 4.84375,-5.828125 4.84375,-17.15625 z"
       id="DejaVuSans-104"
       inkscape:connector-curvature="0"
       style="stroke-linecap:butt;stroke-linejoin:round" />
    <path
       d="m 34.28125,27.484375 q -10.890625,0 -15.09375,-2.484375 -4.203125,-2.484375 -4.203125,-8.5 0,-4.78125 3.15625,-7.59375 3.15625,-2.796875 8.5625,-2.796875 7.484375,0 12,5.296875 4.515625,5.296875 4.515625,14.078125 v 2 z m 17.921875,3.71875 V 0 H 43.21875 v 8.296875 q -3.078125,-4.96875 -7.671875,-7.34375 -4.59375,-2.375 -11.234375,-2.375 -8.390625,0 -13.359375,4.71875 Q 6,8.015625 6,15.921875 q 0,9.21875 6.171875,13.90625 6.1875,4.6875 18.4375,4.6875 H 43.21875 v 0.890625 q 0,6.203125 -4.078125,9.59375 -4.078125,3.390625 -11.453125,3.390625 -4.6875,0 -9.140625,-1.125 -4.4375,-1.125 -8.53125,-3.375 v 8.3125 q 4.921875,1.90625 9.5625,2.84375 Q 24.21875,56 28.609375,56 q 11.875,0 17.734375,-6.15625 5.859375,-6.140625 5.859375,-18.640625 z"
       id="DejaVuSans-97"
       inkscape:connector-curvature="0"
       style="stroke-linecap:butt;stroke-linejoin:round" />
    <path
       d="m 44.28125,53.078125 v -8.5 Q 40.484375,46.53125 36.375,47.5 q -4.09375,0.984375 -8.5,0.984375 -6.6875,0 -10.03125,-2.046875 Q 14.5,44.390625 14.5,40.28125 q 0,-3.125 2.390625,-4.90625 2.390625,-1.78125 9.625,-3.390625 l 3.078125,-0.6875 Q 39.15625,29.25 43.1875,25.515625 47.21875,21.78125 47.21875,15.09375 q 0,-7.625 -6.03125,-12.078125 -6.03125,-4.4375 -16.578125,-4.4375 -4.390625,0 -9.15625,0.859375 Q 10.6875,0.296875 5.421875,2 v 9.28125 q 4.984375,-2.59375 9.8125,-3.890625 4.828125,-1.28125 9.578125,-1.28125 6.34375,0 9.75,2.171875 3.421875,2.171875 3.421875,6.125 0,3.65625 -2.46875,5.609375 -2.453125,1.953125 -10.8125,3.765625 l -3.125,0.734375 q -8.34375,1.75 -12.0625,5.390625 -3.703125,3.640625 -3.703125,9.984375 0,7.71875 5.46875,11.90625 Q 16.75,56 26.8125,56 q 4.96875,0 9.359375,-0.734375 4.40625,-0.71875 8.109375,-2.1875 z"
       id="DejaVuSans-115"
       inkscape:connector-curvature="0"
       style="stroke-linecap:butt;stroke-linejoin:round" />
    <path
       d="m 56.203125,29.59375 v -4.390625 h -41.3125 q 0.59375,-9.28125 5.59375,-14.140625 5,-4.859375 13.9375,-4.859375 5.171875,0 10.03125,1.265625 4.859375,1.265625 9.65625,3.8125 v -8.5 q -4.84375,-2.046875 -9.921875,-3.125 -5.078125,-1.078125 -10.296875,-1.078125 -13.09375,0 -20.734375,7.609375 -7.640625,7.625 -7.640625,20.625 0,13.421875 7.25,21.296875 Q 20.015625,56 32.328125,56 q 11.03125,0 17.453125,-7.109375 6.421875,-7.09375 6.421875,-19.296875 z m -8.984375,2.640625 q -0.09375,7.359375 -4.125,11.75 -4.03125,4.40625 -10.671875,4.40625 -7.515625,0 -12.03125,-4.25 -4.515625,-4.25 -5.203125,-11.96875 z"
       id="DejaVuSans-101"
       inkscape:connector-curvature="0"
       style="stroke-linecap:butt;stroke-linejoin:round" />
    <path
       d="M 0,0 H -3.5"
       id="me847d172c4"
       style="stroke:#000000;stroke-width:0.80000001;stroke-linecap:butt;stroke-linejoin:round"
       inkscape:connector-curvature="0" />
    <path
       d="M 10.59375,35.5 H 73.1875 V 27.203125 H 10.59375 Z"
       id="DejaVuSans-8722"
       inkscape:connector-curvature="0"
       style="stroke-linecap:butt;stroke-linejoin:round" />
    <path
       d="m 10.796875,72.90625 h 38.71875 v -8.3125 h -29.6875 V 46.734375 q 2.140625,0.734375 4.28125,1.09375 2.15625,0.359375 4.3125,0.359375 Q 40.625,48.1875 47.75,41.5 54.890625,34.8125 54.890625,23.390625 54.890625,11.625 47.5625,5.09375 40.234375,-1.421875 26.90625,-1.421875 q -4.59375,0 -9.359375,0.78125 -4.75,0.78125 -9.828125,2.34375 V 11.625 q 4.390625,-2.390625 9.078125,-3.5625 4.6875,-1.171875 9.90625,-1.171875 8.453125,0 13.375,4.4375 4.9375,4.4375 4.9375,12.0625 0,7.609375 -4.9375,12.046875 -4.921875,4.453125 -13.375,4.453125 -3.953125,0 -7.890625,-0.875 -3.921875,-0.875 -8.015625,-2.734375 z"
       id="DejaVuSans-53"
       inkscape:connector-curvature="0"
       style="stroke-linecap:butt;stroke-linejoin:round" />
    <path
       d="M 40.578125,39.3125 Q 47.65625,37.796875 51.625,33 q 3.984375,-4.78125 3.984375,-11.8125 0,-10.78125 -7.421875,-16.703125 -7.421875,-5.90625 -21.09375,-5.90625 -4.578125,0 -9.4375,0.90625 -4.859375,0.90625 -10.03125,2.71875 v 9.515625 q 4.09375,-2.390625 8.96875,-3.609375 4.890625,-1.21875 10.21875,-1.21875 9.265625,0 14.125,3.65625 4.859375,3.65625 4.859375,10.640625 0,6.453125 -4.515625,10.078125 -4.515625,3.640625 -12.5625,3.640625 h -8.5 v 8.109375 h 8.890625 q 7.265625,0 11.125,2.90625 3.859375,2.90625 3.859375,8.375 0,5.609375 -3.984375,8.609375 -3.96875,3.015625 -11.390625,3.015625 -4.0625,0 -8.703125,-0.890625 Q 15.375,64.15625 9.8125,62.3125 v 8.78125 q 5.625,1.5625 10.53125,2.34375 4.90625,0.78125 9.25,0.78125 11.234375,0 17.765625,-5.109375 6.546875,-5.09375 6.546875,-13.78125 0,-6.0625 -3.46875,-10.234375 -3.46875,-4.171875 -9.859375,-5.78125 z"
       id="DejaVuSans-51"
       inkscape:connector-curvature="0"
       style="stroke-linecap:butt;stroke-linejoin:round" />
    <path
       d="m 45.515625,34.671875 h -31.0625 Q 12.359375,20.0625 14.5,13.875 17.1875,6.25 24.46875,6.25 q 7.3125,0 12.890625,7.671875 4.875,6.734375 8.15625,20.75 z m 1.5,8.296875 q 1.328125,13.875 -0.390625,18.75 -2.671875,7.71875 -9.859375,7.71875 -7.46875,0 -12.9375,-7.625 Q 19.53125,55.671875 16.15625,42.96875 Z M 38.1875,76.765625 q 11.71875,0 16.40625,-10.359375 4.6875,-10.296875 1.125,-28.5625 Q 52.203125,19.625 43.453125,9.28125 34.765625,-1.125 23.046875,-1.125 11.28125,-1.125 6.640625,9.28125 2,19.625 5.515625,37.84375 q 3.5625,18.265625 12.203125,28.5625 8.703125,10.359375 20.46875,10.359375 z"
       id="DejaVuSans-Oblique-952"
       inkscape:connector-curvature="0"
       style="stroke-linecap:butt;stroke-linejoin:round" />
    <path
       d="M 47.796875,75.984375 46.390625,68.5 h -8.59375 q -4.890625,0 -7.109375,-1.921875 -2.21875,-1.921875 -3.296875,-7.0625 L 26.421875,54.6875 H 41.21875 L 39.890625,47.703125 H 25.09375 L 15.828125,0 H 6.78125 l 9.328125,47.703125 h -8.59375 l 1.28125,6.984375 h 8.59375 l 0.71875,3.8125 q 1.859375,9.671875 6.515625,13.578125 4.671875,3.90625 14.6875,3.90625 z"
       id="DejaVuSans-Oblique-102"
       inkscape:connector-curvature="0"
       style="stroke-linecap:butt;stroke-linejoin:round" />
    <path
       d="M 31,75.875 Q 24.46875,64.65625 21.28125,53.65625 18.109375,42.671875 18.109375,31.390625 18.109375,20.125 21.3125,9.0625 24.515625,-2 31,-13.1875 H 23.1875 Q 15.875,-1.703125 12.234375,9.375 8.59375,20.453125 8.59375,31.390625 q 0,10.890625 3.609375,21.921875 3.625,11.046875 10.984375,22.5625 z"
       id="DejaVuSans-40"
       inkscape:connector-curvature="0"
       style="stroke-linecap:butt;stroke-linejoin:round" />
    <path
       d="M 41.796875,8.203125 Q 38.1875,3.46875 33.25,1.015625 q -4.921875,-2.4375 -10.9375,-2.4375 -8.203125,0 -12.96875,5.59375 -4.75,5.59375 -4.75,15.3125 0,8.109375 2.875,15.453125 2.890625,7.34375 8.359375,13.15625 3.609375,3.859375 8.140625,5.875 Q 28.515625,56 33.5,56 q 5.265625,0 9.296875,-2.546875 4.03125,-2.53125 6.234375,-7.265625 l 5.859375,29.796875 h 9.03125 L 49.125,0 h -9.03125 z m -27.875,12.890625 q 0,-7.078125 3.1875,-11.03125 3.203125,-3.953125 8.875,-3.953125 4.1875,0 7.78125,2.015625 3.59375,2.03125 6.328125,5.984375 2.875,4.109375 4.53125,9.46875 1.671875,5.375 1.671875,10.609375 0,6.78125 -3.203125,10.578125 -3.203125,3.8125 -8.8125,3.8125 -4.25,0 -7.921875,-2 -3.65625,-2 -6.234375,-5.75 -2.84375,-4.0625 -4.53125,-9.4375 Q 13.921875,26.03125 13.921875,21.09375 Z"
       id="DejaVuSans-Oblique-100"
       inkscape:connector-curvature="0"
       style="stroke-linecap:butt;stroke-linejoin:round" />
    <path
       d="m 48.09375,32.234375 q 0.15625,0.78125 0.21875,1.609375 0.07813,0.828125 0.07813,1.65625 0,5.953125 -3.5,9.421875 -3.484375,3.46875 -9.484375,3.46875 -6.6875,0 -11.828125,-4.234375 -5.125,-4.21875 -7.75,-11.984375 z m 7.8125,-7.03125 H 14.109375 Q 13.8125,23.34375 13.71875,22.265625 13.625,21.1875 13.625,20.40625 q 0,-6.78125 4.171875,-10.5 4.171875,-3.703125 11.796875,-3.703125 5.859375,0 11.078125,1.3125 5.234375,1.328125 9.71875,3.859375 L 48.6875,2.484375 q -4.84375,-1.953125 -10,-2.921875 -5.140625,-0.984375 -10.46875,-0.984375 -11.375,0 -17.5,5.4375 -6.125,5.453125 -6.125,15.46875 0,8.546875 3.046875,15.890625 3.046875,7.34375 8.96875,13.109375 3.796875,3.609375 9.046875,5.5625 Q 30.90625,56 36.8125,56 q 9.28125,0 14.765625,-5.5625 5.5,-5.5625 5.5,-14.9375 0,-2.25 -0.296875,-4.8125 Q 56.5,28.125 55.90625,25.203125 Z"
       id="DejaVuSans-Oblique-101"
       inkscape:connector-curvature="0"
       style="stroke-linecap:butt;stroke-linejoin:round" />
    <path
       d="M 59.625,54.6875 50.296875,6.78125 q -2.6875,-13.90625 -10.28125,-20.734375 -7.59375,-6.84375 -20.4375,-6.84375 -4.734375,0 -8.796875,0.703125 -4.046875,0.703125 -7.5625,2.171875 L 4.890625,-9.1875 q 3.3125,-2.140625 7.015625,-3.15625 3.71875,-1.03125 7.921875,-1.03125 8.546875,0 14.03125,4.671875 5.5,4.65625 7.25,13.390625 l 0.78125,4.109375 Q 38.140625,4.5 33.15625,2.25 28.171875,0 22.40625,0 14.109375,0 9.34375,5.484375 q -4.75,5.5 -4.75,15.125 0,7.5625 2.875,14.8125 2.890625,7.25 8.109375,12.875 Q 19.046875,52 23.65625,54 q 4.609375,2 9.640625,2 5.515625,0 9.609375,-2.5625 4.109375,-2.5625 6.125,-7.25 l 1.5625,8.5 z M 46.09375,34.625 q 0,6.640625 -3.125,10.25 -3.125,3.609375 -8.890625,3.609375 -3.5625,0 -6.78125,-1.421875 -3.21875,-1.40625 -5.515625,-3.953125 -3.71875,-4.1875 -5.796875,-9.875 -2.0625,-5.6875 -2.0625,-11.75 0,-6.734375 3.140625,-10.359375 3.15625,-3.609375 9.0625,-3.609375 8.546875,0 14.25,7.734375 5.71875,7.75 5.71875,19.375 z"
       id="DejaVuSans-Oblique-103"
       inkscape:connector-curvature="0"
       style="stroke-linecap:butt;stroke-linejoin:round" />
    <path
       d="m 8.015625,75.875 h 7.8125 q 7.3125,-11.515625 10.953125,-22.5625 3.640625,-11.03125 3.640625,-21.921875 0,-10.9375 -3.640625,-22.015625 -3.640625,-11.078125 -10.953125,-22.5625 h -7.8125 Q 14.5,-2 17.703125,9.0625 20.90625,20.125 20.90625,31.390625 q 0,11.28125 -3.203125,22.265625 -3.203125,11 -9.6875,22.21875 z"
       id="DejaVuSans-41"
       inkscape:connector-curvature="0"
       style="stroke-linecap:butt;stroke-linejoin:round" />
    <path
       d="m 50,53.078125 -1.703125,-8.5 Q 44.734375,46.53125 40.765625,47.5 36.8125,48.484375 32.625,48.484375 q -7.09375,0 -11.171875,-2.421875 -4.0625,-2.40625 -4.0625,-6.5625 0,-4.828125 9.46875,-7.421875 0.734375,-0.1875 1.078125,-0.296875 l 2.875,-0.875 q 8.984375,-2.484375 11.984375,-5.21875 3,-2.734375 3,-7.46875 0,-8.703125 -6.90625,-14.171875 -6.90625,-5.46875 -18.09375,-5.46875 -4.34375,0 -9.125,0.84375 Q 6.890625,0.25 1.125,2 l 1.75,9.28125 q 4.9375,-2.546875 9.71875,-3.859375 4.796875,-1.3125 9.1875,-1.3125 6.59375,0 10.71875,2.828125 4.125,2.828125 4.125,7.171875 0,4.6875 -10.84375,7.578125 l -0.921875,0.234375 -3.078125,0.78125 Q 14.9375,26.515625 11.765625,29.46875 8.59375,32.421875 8.59375,37.015625 8.59375,45.75 15.15625,50.875 21.734375,56 33.015625,56 q 4.4375,0 8.65625,-0.734375 Q 45.90625,54.546875 50,53.078125 Z"
       id="DejaVuSans-Oblique-115"
       inkscape:connector-curvature="0"
       style="stroke-linecap:butt;stroke-linejoin:round" />
    <defs
       id="defs148">
      <path
         inkscape:connector-curvature="0"
         style="stroke:#000000;stroke-width:0.80000001;stroke-linecap:butt;stroke-linejoin:round"
         id="path1186"
         d="M 0,0 H -3.5" />
    </defs>
    <defs
       id="defs15">
      <path
         inkscape:connector-curvature="0"
         style="stroke:#000000;stroke-width:0.80000001;stroke-linecap:butt;stroke-linejoin:round"
         id="path1090"
         d="M 0,0 V 3.5" />
    </defs>
    <defs
       id="defs24">
      <path
         d="m 31.78125,66.40625 q -7.609375,0 -11.453125,-7.5 Q 16.5,51.421875 16.5,36.375 q 0,-14.984375 3.828125,-22.484375 3.84375,-7.5 11.453125,-7.5 7.671875,0 11.5,7.5 3.84375,7.5 3.84375,22.484375 0,15.046875 -3.84375,22.53125 -3.828125,7.5 -11.5,7.5 z m 0,7.8125 q 12.265625,0 18.734375,-9.703125 6.46875,-9.6875 6.46875,-28.140625 0,-18.40625 -6.46875,-28.109375 -6.46875,-9.6875 -18.734375,-9.6875 -12.25,0 -18.71875,9.6875 Q 6.59375,17.96875 6.59375,36.375 q 0,18.453125 6.46875,28.140625 6.46875,9.703125 18.71875,9.703125 z"
         id="path1096"
         inkscape:connector-curvature="0"
         style="stroke-linecap:butt;stroke-linejoin:round" />
      <path
         d="M 10.6875,12.40625 H 21 V 0 H 10.6875 Z"
         id="path1098"
         inkscape:connector-curvature="0"
         style="stroke-linecap:butt;stroke-linejoin:round" />
    </defs>
    <defs
       id="defs157">
      <path
         d="M 10.59375,35.5 H 73.1875 V 27.203125 H 10.59375 Z"
         id="path1192"
         inkscape:connector-curvature="0"
         style="stroke-linecap:butt;stroke-linejoin:round" />
      <path
         d="m 10.796875,72.90625 h 38.71875 v -8.3125 h -29.6875 V 46.734375 q 2.140625,0.734375 4.28125,1.09375 2.15625,0.359375 4.3125,0.359375 Q 40.625,48.1875 47.75,41.5 54.890625,34.8125 54.890625,23.390625 54.890625,11.625 47.5625,5.09375 40.234375,-1.421875 26.90625,-1.421875 q -4.59375,0 -9.359375,0.78125 -4.75,0.78125 -9.828125,2.34375 V 11.625 q 4.390625,-2.390625 9.078125,-3.5625 4.6875,-1.171875 9.90625,-1.171875 8.453125,0 13.375,4.4375 4.9375,4.4375 4.9375,12.0625 0,7.609375 -4.9375,12.046875 -4.921875,4.453125 -13.375,4.453125 -3.953125,0 -7.890625,-0.875 -3.921875,-0.875 -8.015625,-2.734375 z"
         id="path1194"
         inkscape:connector-curvature="0"
         style="stroke-linecap:butt;stroke-linejoin:round" />
    </defs>
    <defs
       id="defs190">
      <path
         d="M 40.578125,39.3125 Q 47.65625,37.796875 51.625,33 q 3.984375,-4.78125 3.984375,-11.8125 0,-10.78125 -7.421875,-16.703125 -7.421875,-5.90625 -21.09375,-5.90625 -4.578125,0 -9.4375,0.90625 -4.859375,0.90625 -10.03125,2.71875 v 9.515625 q 4.09375,-2.390625 8.96875,-3.609375 4.890625,-1.21875 10.21875,-1.21875 9.265625,0 14.125,3.65625 4.859375,3.65625 4.859375,10.640625 0,6.453125 -4.515625,10.078125 -4.515625,3.640625 -12.5625,3.640625 h -8.5 v 8.109375 h 8.890625 q 7.265625,0 11.125,2.90625 3.859375,2.90625 3.859375,8.375 0,5.609375 -3.984375,8.609375 -3.96875,3.015625 -11.390625,3.015625 -4.0625,0 -8.703125,-0.890625 Q 15.375,64.15625 9.8125,62.3125 v 8.78125 q 5.625,1.5625 10.53125,2.34375 4.90625,0.78125 9.25,0.78125 11.234375,0 17.765625,-5.109375 6.546875,-5.09375 6.546875,-13.78125 0,-6.0625 -3.46875,-10.234375 -3.46875,-4.171875 -9.859375,-5.78125 z"
         id="path1215"
         inkscape:connector-curvature="0"
         style="stroke-linecap:butt;stroke-linejoin:round" />
    </defs>
  </defs>
  <sodipodi:namedview
     id="base"
     pagecolor="#ffffff"
     bordercolor="#666666"
     borderopacity="1.0"
     inkscape:pageopacity="0.0"
     inkscape:pageshadow="2"
     inkscape:zoom="1.979899"
     inkscape:cx="160.97191"
     inkscape:cy="40.161841"
     inkscape:document-units="mm"
     inkscape:current-layer="layer6"
     showgrid="false"
     inkscape:window-width="1920"
     inkscape:window-height="1017"
     inkscape:window-x="1912"
     inkscape:window-y="-8"
     inkscape:window-maximized="1"
     showguides="false"
     fit-margin-top="0"
     fit-margin-left="0"
     fit-margin-right="0"
     fit-margin-bottom="0"
     inkscape:snap-global="false"
     units="in" />
  <metadata
     id="metadata11096">
    <rdf:RDF>
      <cc:Work
         rdf:about="">
        <dc:format>image/svg+xml</dc:format>
        <dc:type
           rdf:resource="http://purl.org/dc/dcmitype/StillImage" />
        <dc:title></dc:title>
      </cc:Work>
    </rdf:RDF>
  </metadata>
  <g
     inkscape:label="Layer 1"
     inkscape:groupmode="layer"
     id="layer1"
     transform="translate(-23.952136,-365.58111)"
     style="display:inline">
    <path
       sodipodi:nodetypes="ccccc"
       inkscape:connector-curvature="0"
       id="path1006"
       d="m 35.519977,372.53032 c -0.963909,9.54258 -4.086279,19.96033 -3.20359,27.70137 m -6.163634,0.68652 c 0.03499,-4.99165 -1.82612,-11.34432 -1.049122,-17.61631 0.565418,-3.30099 1.605012,-6.12779 2.652997,-8.94619"
       style="fill:none;stroke:#000000;stroke-width:0.12220391;stroke-linecap:butt;stroke-linejoin:miter;stroke-miterlimit:4;stroke-dasharray:none;stroke-opacity:1" />
    <path
       sodipodi:nodetypes="cccccccccccsscc"
       inkscape:connector-curvature="0"
       id="path1010"
       d="m 33.466982,399.98101 c -0.66263,-0.10389 -1.163761,-0.83582 -1.163761,-0.83582 l 1.382983,-0.14948 c 0,0 2.252817,0.88221 2.857839,0.9515 0.605019,0.0693 2.247288,-0.0225 2.247288,-0.0225 3.789674,-0.46838 5.710586,0.74935 6.222703,2.1682 0.211194,0.32273 0.457138,0.5878 0.333941,1.04305 l -6.045063,1.77901 c -1.370131,0.29281 -2.345902,0.38458 -4.396876,1.02456 -0.903739,0.2514 -1.475137,0.27857 -2.933214,0.90392 l -4.852097,1.06482 c -0.340652,-0.16173 -0.203935,-0.66043 -0.266425,-1.00956 -0.338935,-1.89364 -0.878044,-3.68964 -1.087811,-5.63432 -0.01444,-0.13385 6.498462,-0.43409 6.487319,-0.56942 z"
       style="fill:#888a85;stroke:#000000;stroke-width:0.13304718px;stroke-linecap:butt;stroke-linejoin:miter;stroke-opacity:1" />
    <path
       inkscape:transform-center-y="36.307924"
       inkscape:transform-center-x="-5.0678074"
       inkscape:connector-curvature="0"
       id="path1062"
       d="m 33.038316,394.12734 c -0.296342,0.0202 -6.297349,-0.9212 -6.297349,-0.9212 l 0.108192,-3.16646 0.560092,-5.85506 1.884502,-5.82294 5.817766,2.72429"
       style="fill:#729fcf;stroke:#000000;stroke-width:0.11636818px;stroke-linecap:butt;stroke-linejoin:miter;stroke-opacity:1"
       sodipodi:nodetypes="cccccc" />
    <path
       inkscape:transform-center-y="31.927661"
       inkscape:transform-center-x="-1.6455191"
       inkscape:connector-curvature="0"
       id="path1066"
       d="m 29.990736,380.95875 -4.356201,-0.77602 -1.131486,3.91044 3.986849,0.8078"
       style="fill:#eeeeec;stroke:#000000;stroke-width:0.11636818px;stroke-linecap:butt;stroke-linejoin:miter;stroke-opacity:1"
       sodipodi:nodetypes="cccc" />
    <path
       inkscape:transform-center-y="37.252952"
       inkscape:transform-center-x="-5.3312523"
       inkscape:connector-curvature="0"
       id="path1060"
       d="m 28.905854,392.41162 c 0,0 -1.21207,-0.12722 -1.413667,-0.53313 -0.201595,-0.40593 0.467219,-7.16017 0.467219,-7.16017 l 0.855122,-3.29897 0.826531,-1.77575 4.140191,2.10754 1.39607,0.2021 -2.272738,11.91691"
       style="fill:#d3d7cf;stroke:#000000;stroke-width:0.11636818px;stroke-linecap:butt;stroke-linejoin:miter;stroke-opacity:1" />
    <path
       inkscape:transform-center-y="44.318127"
       inkscape:transform-center-x="-3.9375796"
       inkscape:connector-curvature="0"
       id="path1058"
       d="m 30.951981,383.83824 2.002109,0.26571 -1.437053,8.59598 c 0,0 2.047013,1.64985 1.704472,2.86223 -0.342533,1.21236 -0.88058,1.93681 -1.124704,2.10498 -0.244114,0.16819 0.265966,0.38988 0.265966,0.38988 l -0.05955,1.08817 c 0,0 -1.582529,0.60911 -1.892844,1.10238 -0.310323,0.49326 -0.592778,2.88473 -0.592778,2.88473 0,0 -0.434811,0.75237 -1.060288,0.66678 -0.625455,-0.0857 -1.034743,-0.81543 -1.034743,-0.81543 l 0.484686,-2.56262 -1.623129,-1.97017 0.92186,-1.35676 c 0,0 -0.858601,-1.77165 -0.369729,-2.68509 0.488866,-0.91343 0.740893,-1.47267 1.236422,-1.62301 0.495527,-0.15034 1.167761,-0.41183 1.167761,-0.41183 z"
       style="fill:#d3d7cf;stroke:#000000;stroke-width:0.11636818px;stroke-linecap:butt;stroke-linejoin:miter;stroke-opacity:1" />
    <path
       inkscape:transform-center-y="-1.15857"
       inkscape:transform-center-x="0.22874229"
       inkscape:connector-curvature="0"
       id="path1068"
       d="m 27.92039,403.962 0.183737,0.5996 1.9052,-0.48052 -0.250945,-0.71922 z"
       style="fill:#555753;stroke:#000000;stroke-width:0.11636818px;stroke-linecap:butt;stroke-linejoin:miter;stroke-opacity:1" />
    <path
       inkscape:transform-center-y="0.26149"
       inkscape:transform-center-x="-0.21987811"
       inkscape:connector-curvature="0"
       id="path1070"
       d="m 28.403481,404.53858 0.423895,1.54682 -0.371727,0.15119 0.178975,0.27975 1.788854,-0.54295 -0.07818,-0.30915 -0.275058,0.0695 -0.373718,-1.4865"
       style="fill:#555753;stroke:#000000;stroke-width:0.11636818px;stroke-linecap:butt;stroke-linejoin:miter;stroke-opacity:1" />
    <path
       style="fill:none;stroke:#000000;stroke-width:0.12220391;stroke-linecap:butt;stroke-linejoin:miter;stroke-miterlimit:4;stroke-dasharray:none;stroke-opacity:1"
       d="m 27.756627,374.35571 -3.666893,-5.77013"
       id="path4178"
       inkscape:connector-curvature="0"
       sodipodi:nodetypes="cc" />
    <path
       style="fill:none;stroke:#000000;stroke-width:0.12220391;stroke-linecap:butt;stroke-linejoin:miter;stroke-miterlimit:4;stroke-dasharray:none;stroke-opacity:1"
       d="m 35.519977,372.53032 -1.349092,-5.98108"
       id="path4180"
       inkscape:connector-curvature="0"
       sodipodi:nodetypes="cc" />
  </g>
  <g
     inkscape:groupmode="layer"
     id="layer4"
     inkscape:label="Layer 4"
     style="display:none"
     transform="translate(-23.952136,-365.58111)">
    <path
       sodipodi:nodetypes="ccccsccc"
       inkscape:connector-curvature="0"
       id="path996"
       d="m 145.27953,80.88056 c -0.82588,4.584328 -0.87323,4.781279 -1.50526,8.041966 m -48.874443,7.638208 c -1.999222,-3.530032 -3.596956,-7.788617 -3.231945,-12.047207 0.882516,-10.29591 5.589225,-20.444741 7.354247,-26.033946 1.765011,-5.58922 1.176671,-30.152322 1.176671,-30.152322 m 53.24457,0.294171 c 0.34609,7.959578 -2.8266,19.828022 -4.78852,32.832947"
       style="fill:none;stroke:#000000;stroke-width:0.41183656px;stroke-linecap:butt;stroke-linejoin:miter;stroke-opacity:1" />
    <path
       sodipodi:nodetypes="csssccccccscsccscc"
       inkscape:connector-curvature="0"
       id="path998"
       d="m 99.59325,50.163025 c -5.319233,10.833368 -12.37199,27.86362 -13.21016,31.383971 -1.040023,4.368186 -1.664074,17.056725 -1.664074,19.552814 0,2.49611 -4.368186,12.06452 -4.368186,14.35262 0,2.28811 -2.912099,10.19245 -3.536134,11.4405 -0.228392,1.32715 -3.01055,5.38853 -3.952183,5.20021 -2.691957,-1.77329 3.884769,-8.53267 2.704128,-18.30479 -3.60895,4.66147 -8.55376,15.46793 -10.816451,13.9366 -0.666654,-2.96264 4.761044,-9.92287 5.408225,-17.88877 -3.51498,1.79125 -6.37895,7.48832 -9.56841,11.23248 -2.645617,-0.42239 -0.447834,-2.61423 1.456928,-7.904 0.727329,-2.01985 2.561533,-4.49143 1.767197,-7.48864 -2.535492,0.86294 -3.969836,3.0778 -4.791957,5.40339 -0.247118,0.69911 -1.341044,-0.26291 -1.552299,-0.6712 0.13075,-2.7636 2.483581,-6.29622 5.304216,-11.596487 2.176615,-4.038901 7.631163,-12.011192 8.632365,-12.480522 1.130069,-0.529724 9.204397,-37.285607 9.620414,-39.365699 0.416004,-2.080078 9.932441,-19.084801 9.932441,-19.084801"
       style="fill:none;stroke:#000000;stroke-width:0.41183656px;stroke-linecap:butt;stroke-linejoin:miter;stroke-opacity:1" />
    <path
       sodipodi:nodetypes="ccccccccccccccccccccccccccccc"
       inkscape:connector-curvature="0"
       id="path1000"
       d="m 104.61129,27.444759 4.26546,15.29677 29.35788,30.13632 9.47239,9.723583 c 2.36701,2.928987 2.53862,6.171604 3.80794,9.257392 l 3.45121,7.752396 c 1.12998,2.95899 2.84299,5.43207 4.80179,7.7004 1.56519,0.31852 1.96039,-0.27296 1.76504,-1.32375 -1.33145,-1.65336 -2.44169,-3.49633 -3.08878,-5.7363 0.23312,-1.133163 0.66178,-1.777575 2.0592,0 l 6.39816,9.59727 c 1.04691,1.22081 3.55978,1.61469 2.27978,-0.66189 l -4.11834,-9.670806 c -0.30061,-2.612543 0.44768,-2.927579 2.20624,-1.029585 3.53241,3.749941 5.75412,7.893101 8.38386,11.913841 0.93495,0.98076 2.89907,0.3154 2.05917,-1.32377 -1.91211,-4.7067 -7.08587,-13.694326 -5.7363,-14.120104 0.89212,-0.187425 2.00972,0.977963 3.08875,1.912096 2.23242,2.604817 4.50804,4.967528 6.98654,8.972158 1.14865,1.53193 3.10906,1.43092 2.13275,-1.0296 -2.6782,-4.72011 -5.21857,-9.517724 -9.41343,-13.384682 0.91022,-0.233701 0.88934,-0.552061 0.73544,-0.882501 -1.44556,-2.053289 -2.68645,-4.388499 -4.70668,-6.618799 l -3.82424,-3.824204 c 0,0 -6.61877,-4.853783 -7.20713,-5.295033 -0.58831,-0.44125 -7.79544,-8.530909 -7.79544,-8.530909 L 139.22033,50.648075 126.5269,35.093152 126.23274,28.327259"
       style="fill:none;stroke:#000000;stroke-width:0.41183656px;stroke-linecap:butt;stroke-linejoin:miter;stroke-opacity:1" />
    <path
       sodipodi:nodetypes="ccc"
       inkscape:connector-curvature="0"
       id="path1002"
       d="m 80.870873,96.939641 c -0.414276,4.964279 -5.764052,8.170839 -8.00833,13.208569 4.89732,-0.13713 6.610503,-2.70431 8.94436,-4.88822"
       style="fill:none;stroke:#000000;stroke-width:0.41183656px;stroke-linecap:butt;stroke-linejoin:miter;stroke-opacity:1" />
    <path
       sodipodi:nodetypes="csccc"
       inkscape:transform-center-y="-33.32522"
       inkscape:transform-center-x="4.4138294"
       inkscape:connector-curvature="0"
       id="path1022"
       d="m 100.12526,55.905596 c 0,0 5.95691,1.10314 10.22237,1.10314 2.31634,0 6.99666,0.06507 11.70899,0.06569 m 22.56616,-0.730472 c 2.75817,-0.09028 4.77578,-0.144136 4.77578,-0.144136"
       style="fill:none;stroke:#000000;stroke-width:0.41183656px;stroke-linecap:butt;stroke-linejoin:miter;stroke-opacity:1" />
  </g>
  <g
     inkscape:groupmode="layer"
     id="layer2"
     inkscape:label="Layer 2"
     style="display:inline"
     transform="translate(-23.952136,-365.58111)">
    <path
       style="fill:none;stroke:#000000;stroke-width:0.3455523;stroke-linecap:butt;stroke-linejoin:miter;stroke-miterlimit:4;stroke-dasharray:none;stroke-dashoffset:0;stroke-opacity:1"
       d="m 33.761389,392.99461 -0.04499,-24.09049"
       id="path859"
       inkscape:connector-curvature="0"
       sodipodi:nodetypes="cc" />
    <path
       sodipodi:nodetypes="cc"
       inkscape:connector-curvature="0"
       id="path861"
       d="m 33.775401,374.29993 -2.258364,18.4"
       style="fill:none;stroke:#000000;stroke-width:0.3455523;stroke-linecap:butt;stroke-linejoin:miter;stroke-miterlimit:4;stroke-dasharray:none;stroke-opacity:1" />
    <path
       sodipodi:nodetypes="cc"
       inkscape:connector-curvature="0"
       id="path882"
       d="m 28.346724,405.63937 19.833477,-0.045"
       style="fill:none;stroke:#000000;stroke-width:0.3455523;stroke-linecap:butt;stroke-linejoin:miter;stroke-miterlimit:4;stroke-dasharray:none;stroke-dashoffset:0;stroke-opacity:1" />
    <path
       style="fill:none;stroke:#000000;stroke-width:0.3455523;stroke-linecap:butt;stroke-linejoin:miter;stroke-miterlimit:4;stroke-dasharray:none;stroke-dashoffset:0;stroke-opacity:1"
       d="m 28.237856,405.63937 18.823758,-4.67152"
       id="path884"
       inkscape:connector-curvature="0"
       sodipodi:nodetypes="cc" />
    <path
       style="opacity:1;fill:none;fill-opacity:0.99534882;fill-rule:nonzero;stroke:#000000;stroke-width:0.3455523;stroke-miterlimit:4;stroke-dasharray:none;stroke-dashoffset:0;stroke-opacity:1;marker-start:url(#marker1921);marker-end:url(#marker2107)"
       id="path1529"
       sodipodi:type="arc"
       sodipodi:cx="30.53615"
       sodipodi:cy="405.52725"
       sodipodi:rx="16.621155"
       sodipodi:ry="16.621155"
       sodipodi:start="6.0401244"
       sodipodi:end="6.246104"
       d="m 46.66874,401.52696 a 16.621155,16.621155 0 0 1 0.477139,3.3841"
       sodipodi:open="true" />
    <path
       id="path1531"
       style="opacity:1;fill:none;fill-opacity:0.99534882;fill-rule:nonzero;stroke:#000000;stroke-width:0.3455523;stroke-miterlimit:4;stroke-dasharray:none;stroke-dashoffset:0;stroke-opacity:1;marker-start:url(#Arrow2Sstart)"
       transform="rotate(105)"
       d="m 368.57316,-131.18782 a 15.858944,15.858944 0 0 1 -0.25077,4.95734"
       sodipodi:type="arc"
       sodipodi:start="6.1765874"
       sodipodi:end="0.20768295"
       sodipodi:ry="15.858944"
       sodipodi:rx="15.858944"
       sodipodi:cy="-129.50049"
       sodipodi:cx="352.80423"
       sodipodi:open="true" />
    <path
       transform="rotate(105)"
       style="opacity:1;fill:none;fill-opacity:0.99534882;fill-rule:nonzero;stroke:#000000;stroke-width:0.3455523;stroke-miterlimit:4;stroke-dasharray:none;stroke-dashoffset:0;stroke-opacity:1;marker-end:url(#Arrow2Send)"
       id="path1533"
       sodipodi:type="arc"
       sodipodi:cx="352.80423"
       sodipodi:cy="-129.50049"
       sodipodi:rx="15.858944"
       sodipodi:ry="15.858944"
       sodipodi:start="5.5864287"
       sodipodi:end="5.9834616"
       d="m 364.96689,-139.67771 a 15.858944,15.858944 0 0 1 2.98926,5.49477"
       sodipodi:open="true" />
  </g>
  <g
     inkscape:groupmode="layer"
     id="layer3"
     inkscape:label="Layer 3"
     style="display:none"
     transform="translate(-23.952136,-365.58111)" />
  <g
     inkscape:groupmode="layer"
     id="layer5"
     inkscape:label="Layer 5"
     style="display:inline"
     transform="translate(-23.952136,-365.58111)">
    <g
       transform="matrix(0.09369453,0,0,0.09369453,48.305241,363.69453)"
       id="line2d_15"
       style="stroke-width:4.80151081;stroke-linecap:butt;stroke-linejoin:round;stroke-miterlimit:4;stroke-dasharray:none">
      <path
         clip-path="url(#pd55403c534)"
         d="m 126.9,84.094291 2.23423,2.428338 2.23424,2.764168 2.79279,3.87337 2.79279,4.273258 3.35135,5.558105 3.90991,6.92613 6.14415,11.40546 7.26126,13.40657 3.90991,6.78498 3.35135,5.38639 2.79279,4.09438 2.7928,3.66198 2.23423,2.57163 2.23424,2.215 1.67567,1.40583 1.67568,1.17026 1.67567,0.91972 1.67568,0.65418 1.67567,0.39273 8.93694,1.66185 9.4955,1.54169 10.61261,1.49368 12.28829,1.49142 15.08108,1.59182 45.8018,4.66354 11.72973,1.49895 10.61261,1.57732 9.4955,1.63228 8.93693,1.7607 8.37838,1.87578 7.81982,1.96977 7.81982,2.20199 7.26126,2.27036 7.26127,2.50428 7.26126,2.75443 6.7027,2.77859 6.7027,3.01832 6.7027,3.27079 6.70271,3.53602 6.14414,3.48526 2.23424,1.42865 1.67567,1.39992 1.67568,1.69272 1.67567,1.97418 2.23424,3.05046 2.23423,3.50377 2.23424,3.9302 2.23423,4.32975 2.79279,5.93308 2.7928,6.46283 3.35135,8.38075 3.35135,8.97723 3.90991,11.10628 4.46847,13.35094 6.14414,19.12317 15.63964,49.08389 4.46847,13.18345 3.90991,10.91295 3.35135,8.77678 3.35135,8.14823 2.79279,6.24457 2.7928,5.69253 2.23423,4.12128 2.23424,3.70748 2.23423,3.26488 2.23423,2.80624 2.23424,2.35679 1.67567,1.47889 1.67568,1.23631 1.67568,0.9981 1.67567,0.76429 1.67568,0.53485 1.67567,0.30981 1.67568,0.0891 1.67567,-0.12714 1.67568,-0.33903 1.67567,-0.54654 1.67568,-0.74967 1.67568,-0.94841 2.23423,-1.56612 2.23423,-1.90126 2.23424,-2.22599 2.23423,-2.54033 2.23424,-2.84429 2.79279,-3.96697 2.79279,-4.40535 2.7928,-4.82344 2.79279,-5.22124 3.35135,-6.76199 3.35135,-7.27051 3.90991,-9.07817 3.90991,-9.66688 4.46847,-11.69727 4.46847,-12.31031 5.02703,-14.47834 6.14414,-18.43383 7.26126,-22.55351 11.72973,-37.32071 11.72973,-37.10491 6.7027,-20.52717 5.58559,-16.47459 5.02703,-14.19291 4.46846,-12.01213 4.46847,-11.35724 3.90991,-9.33502 3.90991,-8.71427 3.35135,-6.93308 3.35135,-6.40103 2.7928,-4.90246 2.79279,-4.488314 2.79279,-4.053875 2.7928,-3.599138 2.23423,-2.538259 2.23423,-2.223844 2.23424,-1.899036 2.23423,-1.563834 1.67568,-0.946649 1.67568,-0.747868 1.67567,-0.544702 1.67568,-0.337153 1.67567,-0.125218 1.67568,0.0911 1.67567,0.311804 1.67568,0.53689 1.67567,0.766363 1.67568,1.000219 1.67568,1.23846 1.67567,1.481086 0.55856,0.548369 v 0"
         style="fill:none;stroke:#1f77b4;stroke-width:4.80151081;stroke-linecap:square;stroke-linejoin:round;stroke-miterlimit:4;stroke-dasharray:none"
         id="path270"
         inkscape:connector-curvature="0" />
    </g>
    <g
       transform="matrix(0.09369453,0,0,0.09369453,48.305241,363.69453)"
       id="line2d_16"
       style="stroke-width:4.80151081;stroke-linecap:butt;stroke-linejoin:round;stroke-miterlimit:4;stroke-dasharray:none">
      <path
         clip-path="url(#pd55403c534)"
         d="m 126.9,103.38662 2.23423,1.53914 2.23424,1.80555 2.79279,2.60009 2.79279,2.94363 2.7928,3.24677 3.35135,4.23937 3.90991,5.33096 5.02702,7.29268 9.4955,14.33542 6.14414,9.05236 4.46847,6.17843 3.35135,4.29681 3.35136,3.93035 2.79279,2.94499 3.35135,3.16593 5.02703,4.44231 5.02702,4.12122 5.02703,3.81675 5.02703,3.52887 5.02702,3.25761 5.02703,3.00296 5.02703,2.76489 5.58558,2.8131 5.58559,2.56249 6.14414,2.55646 6.14415,2.3111 6.7027,2.27699 7.26126,2.22358 8.37838,2.31523 10.05406,2.52781 36.86486,9.01464 7.81982,2.27758 7.26126,2.35332 6.7027,2.42051 6.14415,2.4627 5.58558,2.46758 5.58559,2.70897 5.58558,2.97316 5.02703,2.92054 5.02703,3.16958 5.02703,3.43522 5.02702,3.71748 5.02703,4.01634 5.02703,4.3318 4.46846,4.12875 4.46847,4.40278 4.46847,4.68848 4.46847,4.98585 7.26126,8.21497 8.93694,9.74687 24.01802,25.98932 7.26126,8.31198 6.14414,7.37147 5.58559,7.04038 5.02703,6.66269 5.02702,7.01631 5.02703,7.41281 4.46847,6.95668 4.46847,7.33392 2.79279,4.56679 2.23423,3.20101 2.23424,2.7872 2.23423,2.38264 2.23424,1.98733 1.67567,1.23662 1.67568,1.02335 1.67567,0.81399 1.67568,0.60851 1.67567,0.40695 1.67568,0.20928 1.67567,0.0155 1.67568,-0.17436 1.67568,-0.36033 1.67567,-0.54241 2.23424,-0.99968 2.23423,-1.30719 2.23423,-1.60546 2.23424,-1.89446 2.23423,-2.17425 2.23424,-2.44477 2.79279,-3.42232 2.79279,-3.81252 2.7928,-4.18467 2.79279,-4.53877 3.35135,-5.88851 3.35135,-6.34122 3.90991,-7.92863 3.90991,-8.4528 4.46847,-10.23865 4.46847,-10.78464 5.02702,-12.69325 6.14415,-16.1717 7.26126,-19.79694 11.72973,-32.77365 11.72973,-32.5867 7.26126,-19.49385 5.58559,-14.39839 5.02702,-12.38307 4.46847,-10.46108 4.46847,-9.87008 3.90991,-8.09339 3.35135,-6.49443 3.35135,-6.0528 3.35135,-5.57998 2.7928,-4.26629 2.79279,-3.89822 2.79279,-3.51209 2.7928,-3.10792 2.23423,-2.18319 2.23423,-1.90371 2.23424,-1.61501 2.23423,-1.31704 2.23424,-1.00983 1.67567,-0.55022 1.67568,-0.36831 1.67567,-0.18251 1.67568,0.007 1.67568,0.20079 1.67567,0.39829 1.67568,0.59969 1.67567,0.80499 1.11712,0.65264 v 0"
         style="fill:none;stroke:#ff7f0e;stroke-width:4.80151081;stroke-linecap:square;stroke-linejoin:round;stroke-miterlimit:4;stroke-dasharray:none"
         id="path273"
         inkscape:connector-curvature="0" />
    </g>
    <path
       inkscape:connector-curvature="0"
       id="path276"
       style="fill:none;stroke:#000000;stroke-width:0.44987532;stroke-linecap:square;stroke-linejoin:miter;stroke-miterlimit:4;stroke-dasharray:none"
       d="M 57.581,405.72215 V 370.40916"
       sodipodi:nodetypes="cc" />
    <g
       transform="matrix(0.09369453,0,0,0.09369453,48.305241,363.69453)"
       id="patch_5"
       style="stroke-width:4.80151081;stroke-linecap:butt;stroke-linejoin:round;stroke-miterlimit:4;stroke-dasharray:none">
      <path
         d="M 99,448.56 H 684.68399"
         style="fill:none;stroke:#000000;stroke-width:4.80151081;stroke-linecap:square;stroke-linejoin:miter;stroke-miterlimit:4;stroke-dasharray:none"
         id="path282"
         inkscape:connector-curvature="0"
         sodipodi:nodetypes="cc" />
    </g>
    <g
       transform="matrix(0.09369453,0,0,0.09369453,79.157505,330.49632)"
       style="stroke-width:4.80151081;stroke-linecap:butt;stroke-linejoin:round;stroke-miterlimit:4;stroke-dasharray:none"
       id="line2d_17">
      <path
         inkscape:connector-curvature="0"
         id="path291"
         style="fill:none;stroke:#1f77b4;stroke-width:4.80151081;stroke-linecap:square;stroke-linejoin:round;stroke-miterlimit:4;stroke-dasharray:none"
         d="m 108,419.16 h 20" />
    </g>
    <g
       style="stroke-width:4.80151081;stroke-linecap:butt;stroke-linejoin:round;stroke-miterlimit:4;stroke-dasharray:none"
       id="line2d_18"
       transform="matrix(0.2449229,0,0,0.2449229,15.731806,286.85471)" />
    <g
       transform="matrix(0.09369453,0,0,0.09369453,79.157505,334.1401)"
       style="stroke-width:4.80151081;stroke-linecap:butt;stroke-linejoin:round;stroke-miterlimit:4;stroke-dasharray:none"
       id="line2d_19">
      <path
         inkscape:connector-curvature="0"
         id="path321"
         style="fill:none;stroke:#ff7f0e;stroke-width:4.80151081;stroke-linecap:square;stroke-linejoin:round;stroke-miterlimit:4;stroke-dasharray:none"
         d="m 108,433.96 h 20" />
    </g>
    <g
       style="stroke-width:4.80151081;stroke-linecap:butt;stroke-linejoin:round;stroke-miterlimit:4;stroke-dasharray:none"
       id="line2d_20"
       transform="matrix(0.2449229,0,0,0.2449229,15.731806,286.85471)" />
    <g
       id="g3858"
       transform="matrix(0.18406334,0,0,0.38254705,49.984211,253.9591)">
      <path
         inkscape:connector-curvature="0"
         id="path3825"
         style="fill:none;stroke:#000000;stroke-width:1.176;stroke-linecap:square;stroke-linejoin:miter;stroke-miterlimit:4;stroke-dasharray:none"
         d="m 41.516724,390.10517 h 2.362353"
         sodipodi:nodetypes="cc" />
      <path
         sodipodi:nodetypes="cc"
         d="m 41.516724,377.85873 h 2.362353"
         style="fill:none;stroke:#000000;stroke-width:1.176;stroke-linecap:square;stroke-linejoin:miter;stroke-miterlimit:4;stroke-dasharray:none"
         id="path3829"
         inkscape:connector-curvature="0" />
      <path
         inkscape:connector-curvature="0"
         id="path3831"
         style="fill:none;stroke:#000000;stroke-width:1.176;stroke-linecap:square;stroke-linejoin:miter;stroke-miterlimit:4;stroke-dasharray:none"
         d="m 41.516724,341.11943 h 2.362353"
         sodipodi:nodetypes="cc" />
      <path
         sodipodi:nodetypes="cc"
         d="m 41.516724,365.6123 h 2.362353"
         style="fill:none;stroke:#000000;stroke-width:1.176;stroke-linecap:square;stroke-linejoin:miter;stroke-miterlimit:4;stroke-dasharray:none"
         id="path3833"
         inkscape:connector-curvature="0" />
      <path
         inkscape:connector-curvature="0"
         id="path3835"
         style="fill:none;stroke:#000000;stroke-width:1.176;stroke-linecap:square;stroke-linejoin:miter;stroke-miterlimit:4;stroke-dasharray:none"
         d="m 41.516724,353.36587 h 2.362353"
         sodipodi:nodetypes="cc" />
      <path
         sodipodi:nodetypes="cc"
         d="m 41.516724,328.873 h 2.362353"
         style="fill:none;stroke:#000000;stroke-width:1.176;stroke-linecap:square;stroke-linejoin:miter;stroke-miterlimit:4;stroke-dasharray:none"
         id="path3842"
         inkscape:connector-curvature="0" />
      <path
         inkscape:connector-curvature="0"
         id="path3844"
         style="fill:none;stroke:#000000;stroke-width:1.176;stroke-linecap:square;stroke-linejoin:miter;stroke-miterlimit:4;stroke-dasharray:none"
         d="m 41.516724,316.62656 h 2.362353"
         sodipodi:nodetypes="cc" />
      <path
         sodipodi:nodetypes="cc"
         d="m 41.516723,304.38012 h 2.362353"
         style="fill:none;stroke:#000000;stroke-width:1.176;stroke-linecap:square;stroke-linejoin:miter;stroke-miterlimit:4;stroke-dasharray:none"
         id="path3848"
         inkscape:connector-curvature="0" />
    </g>
    <g
       transform="matrix(0.48115217,0,0,1,35.995733,0)"
       id="g3876" />
    <path
       d="M 60.212605,405.72215 V 405.3697"
       style="fill:none;stroke:#000000;stroke-width:0.44987532;stroke-linecap:square;stroke-linejoin:miter;stroke-miterlimit:4;stroke-dasharray:none"
       id="path3940"
       inkscape:connector-curvature="0"
       sodipodi:nodetypes="cc" />
    <path
       sodipodi:nodetypes="cc"
       inkscape:connector-curvature="0"
       id="path3942"
       style="fill:none;stroke:#000000;stroke-width:0.44987532;stroke-linecap:square;stroke-linejoin:miter;stroke-miterlimit:4;stroke-dasharray:none"
       d="M 70.664766,405.72215 V 405.3697" />
    <path
       d="M 81.116927,405.72215 V 405.3697"
       style="fill:none;stroke:#000000;stroke-width:0.44987532;stroke-linecap:square;stroke-linejoin:miter;stroke-miterlimit:4;stroke-dasharray:none"
       id="path3944"
       inkscape:connector-curvature="0"
       sodipodi:nodetypes="cc" />
    <path
       sodipodi:nodetypes="cc"
       inkscape:connector-curvature="0"
       id="path3946"
       style="fill:none;stroke:#000000;stroke-width:0.44987532;stroke-linecap:square;stroke-linejoin:miter;stroke-miterlimit:4;stroke-dasharray:none"
       d="M 91.569088,405.72215 V 405.3697" />
    <path
       d="M 102.02125,405.72215 V 405.3697"
       style="fill:none;stroke:#000000;stroke-width:0.44987532;stroke-linecap:square;stroke-linejoin:miter;stroke-miterlimit:4;stroke-dasharray:none"
       id="path3948"
       inkscape:connector-curvature="0"
       sodipodi:nodetypes="cc" />
    <path
       sodipodi:nodetypes="cc"
       inkscape:connector-curvature="0"
       id="path3950"
       style="fill:none;stroke:#000000;stroke-width:0.44987532;stroke-linecap:square;stroke-linejoin:miter;stroke-miterlimit:4;stroke-dasharray:none"
       d="M 112.47341,405.72215 V 405.3697" />
  </g>
  <g
     inkscape:groupmode="layer"
     id="layer6"
     inkscape:label="Text"
     transform="translate(-23.952136,-365.58111)"
     style="display:inline">
    <flowRoot
       xml:space="preserve"
       id="flowRoot2553"
       style="font-style:normal;font-weight:normal;font-size:13.33333397px;line-height:1.25;font-family:sans-serif;text-align:start;letter-spacing:0px;word-spacing:0px;text-anchor:start;display:inline;fill:#000000;fill-opacity:1;stroke:none"
       transform="matrix(0.07847844,0,0,0.07847844,-0.88246904,322.26638)"><flowRegion
         id="flowRegion2555"
         style="font-size:13.33333397px;text-align:start;text-anchor:start"><rect
           id="rect2557"
           width="92.865837"
           height="35.61277"
           x="512.85712"
           y="812.51965"
           style="font-size:13.33333397px;text-align:start;text-anchor:start" /></flowRegion><flowPara
         id="flowPara2559">$\theta_s$</flowPara></flowRoot>    <flowRoot
       transform="matrix(0.07847844,0,0,0.07847844,5.1811935,333.66418)"
       style="font-style:normal;font-weight:normal;font-size:13.33333397px;line-height:1.25;font-family:sans-serif;text-align:start;letter-spacing:0px;word-spacing:0px;text-anchor:start;display:inline;fill:#000000;fill-opacity:1;stroke:none"
       id="flowRoot2572"
       xml:space="preserve"><flowRegion
         style="font-size:13.33333397px;text-align:start;text-anchor:start"
         id="flowRegion2568"><rect
           style="font-size:13.33333397px;text-align:start;text-anchor:start"
           y="812.51965"
           x="512.85712"
           height="46.724445"
           width="104.98766"
           id="rect2566" /></flowRegion><flowPara
         id="flowPara2570">$\theta_f$</flowPara></flowRoot>    <flowRoot
       xml:space="preserve"
       id="flowRoot3204"
       style="font-style:normal;font-weight:normal;font-size:13.33333397px;line-height:1.25;font-family:sans-serif;text-align:start;letter-spacing:0px;word-spacing:0px;text-anchor:start;display:inline;fill:#000000;fill-opacity:1;stroke:none"
       transform="matrix(0.10121557,0,0,0.10121557,39.908519,286.96984)"><flowRegion
         id="flowRegion3200"
         style="font-size:13.33333397px;text-align:start;text-anchor:start"><rect
           id="rect3198"
           width="93.875984"
           height="39.653378"
           x="512.85712"
           y="812.51965"
           style="font-size:13.33333397px;text-align:start;text-anchor:start" /></flowRegion><flowPara
         id="flowPara3202">$\theta_f$ </flowPara></flowRoot>    <flowRoot
       transform="matrix(0.10121557,0,0,0.10121557,39.908519,291.62576)"
       style="font-style:normal;font-weight:normal;font-size:13.33333397px;line-height:1.25;font-family:sans-serif;text-align:start;letter-spacing:0px;word-spacing:0px;text-anchor:start;display:inline;fill:#000000;fill-opacity:1;stroke:none"
       id="flowRoot3246"
       xml:space="preserve"><flowRegion
         style="font-size:13.33333397px;text-align:start;text-anchor:start"
         id="flowRegion3242"><rect
           style="font-size:13.33333397px;text-align:start;text-anchor:start"
           y="812.51965"
           x="512.85712"
           height="42.683838"
           width="93.875984"
           id="rect3240" /></flowRegion><flowPara
         id="flowPara3244">$\theta_s$ </flowPara></flowRoot>    <flowRoot
       xml:space="preserve"
       id="flowRoot3952"
       style="font-style:normal;font-weight:normal;font-size:10.66666698px;line-height:1.25;font-family:sans-serif;text-align:center;letter-spacing:0px;word-spacing:0px;text-anchor:middle;display:inline;fill:#000000;fill-opacity:1;stroke:none"
       transform="matrix(0.10121557,0,0,0.10121557,42.038825,303.51705)"><flowRegion
         id="flowRegion3954"
         style="text-align:center;text-anchor:middle"><rect
           id="rect3956"
           width="45.525085"
           height="35.615593"
           x="156.61777"
           y="1018.915"
           style="text-align:center;text-anchor:middle" /></flowRegion><flowPara
         id="flowPara3958">0.0</flowPara></flowRoot>    <flowRoot
       transform="matrix(0.10121557,0,0,0.10121557,52.492152,303.52608)"
       style="font-style:normal;font-weight:normal;font-size:10.66666698px;line-height:1.25;font-family:sans-serif;text-align:center;letter-spacing:0px;word-spacing:0px;text-anchor:middle;display:inline;fill:#000000;fill-opacity:1;stroke:none"
       id="flowRoot3966"
       xml:space="preserve"><flowRegion
         style="text-align:center;text-anchor:middle"
         id="flowRegion3962"><rect
           style="text-align:center;text-anchor:middle"
           y="1018.915"
           x="156.61777"
           height="35.615593"
           width="45.525085"
           id="rect3960" /></flowRegion><flowPara
         id="flowPara3964">0.2</flowPara></flowRoot>    <flowRoot
       xml:space="preserve"
       id="flowRoot3974"
       style="font-style:normal;font-weight:normal;font-size:10.66666698px;line-height:1.25;font-family:sans-serif;text-align:center;letter-spacing:0px;word-spacing:0px;text-anchor:middle;display:inline;fill:#000000;fill-opacity:1;stroke:none"
       transform="matrix(0.10121557,0,0,0.10121557,62.945478,303.52608)"><flowRegion
         id="flowRegion3970"
         style="text-align:center;text-anchor:middle"><rect
           id="rect3968"
           width="45.525085"
           height="35.615593"
           x="156.61777"
           y="1018.915"
           style="text-align:center;text-anchor:middle" /></flowRegion><flowPara
         id="flowPara3972">0.4</flowPara></flowRoot>    <flowRoot
       transform="matrix(0.10121557,0,0,0.10121557,73.398805,303.52608)"
       style="font-style:normal;font-weight:normal;font-size:10.66666698px;line-height:1.25;font-family:sans-serif;text-align:center;letter-spacing:0px;word-spacing:0px;text-anchor:middle;display:inline;fill:#000000;fill-opacity:1;stroke:none"
       id="flowRoot3982"
       xml:space="preserve"><flowRegion
         style="text-align:center;text-anchor:middle"
         id="flowRegion3978"><rect
           style="text-align:center;text-anchor:middle"
           y="1018.915"
           x="156.61777"
           height="35.615593"
           width="45.525085"
           id="rect3976" /></flowRegion><flowPara
         id="flowPara3980">0.6</flowPara></flowRoot>    <flowRoot
       xml:space="preserve"
       id="flowRoot3990"
       style="font-style:normal;font-weight:normal;font-size:10.66666698px;line-height:1.25;font-family:sans-serif;text-align:center;letter-spacing:0px;word-spacing:0px;text-anchor:middle;display:inline;fill:#000000;fill-opacity:1;stroke:none"
       transform="matrix(0.10121557,0,0,0.10121557,83.85213,303.52608)"><flowRegion
         id="flowRegion3986"
         style="text-align:center;text-anchor:middle"><rect
           id="rect3984"
           width="45.525085"
           height="35.615593"
           x="156.61777"
           y="1018.915"
           style="text-align:center;text-anchor:middle" /></flowRegion><flowPara
         id="flowPara3988">0.8</flowPara></flowRoot>    <flowRoot
       transform="matrix(0.10121557,0,0,0.10121557,93.313271,303.52608)"
       style="font-style:normal;font-weight:normal;font-size:10.66666698px;line-height:1.25;font-family:sans-serif;text-align:center;letter-spacing:0px;word-spacing:0px;text-anchor:middle;display:inline;fill:#000000;fill-opacity:1;stroke:none"
       id="flowRoot3998"
       xml:space="preserve"><flowRegion
         style="text-align:center;text-anchor:middle"
         id="flowRegion3994"><rect
           style="text-align:center;text-anchor:middle"
           y="1018.915"
           x="156.61777"
           height="35.615593"
           width="45.525085"
           id="rect3992" /></flowRegion><flowPara
         id="flowPara3996">1.0</flowPara></flowRoot>    <flowRoot
       transform="matrix(0.10121557,0,0,0.10121557,66.386807,307.16984)"
       style="font-style:normal;font-weight:normal;font-size:10.66666698px;line-height:1.25;font-family:sans-serif;text-align:center;letter-spacing:0px;word-spacing:0px;text-anchor:middle;display:inline;fill:#000000;fill-opacity:1;stroke:none"
       id="flowRoot4030"
       xml:space="preserve"><flowRegion
         style="text-align:center;text-anchor:middle"
         id="flowRegion4026"><rect
           style="text-align:center;text-anchor:middle"
           y="1018.915"
           x="156.61777"
           height="35.615593"
           width="45.525085"
           id="rect4024" /></flowRegion><flowPara
         id="flowPara4028">Phase</flowPara></flowRoot>    <flowRoot
       transform="matrix(0.10121557,0,0,0.10121557,36.22561,299.49237)"
       style="font-style:normal;font-weight:normal;font-size:10.66666698px;line-height:1.25;font-family:sans-serif;text-align:end;letter-spacing:0px;word-spacing:0px;text-anchor:end;display:inline;fill:#000000;fill-opacity:1;stroke:none"
       id="flowRoot4038"
       xml:space="preserve"><flowRegion
         style="text-align:end;text-anchor:end"
         id="flowRegion4034"><rect
           style="text-align:end;text-anchor:end"
           y="1018.915"
           x="156.61777"
           height="35.615593"
           width="45.525085"
           id="rect4032" /></flowRegion><flowPara
         id="flowPara4036">-50</flowPara></flowRoot>    <flowRoot
       xml:space="preserve"
       id="flowRoot4046"
       style="font-style:normal;font-weight:normal;font-size:10.66666698px;line-height:1.25;font-family:sans-serif;text-align:end;letter-spacing:0px;word-spacing:0px;text-anchor:end;display:inline;fill:#000000;fill-opacity:1;stroke:none"
       transform="matrix(0.10121557,0,0,0.10121557,36.22561,294.79505)"><flowRegion
         id="flowRegion4042"
         style="text-align:end;text-anchor:end"><rect
           id="rect4040"
           width="45.525085"
           height="35.615593"
           x="156.61777"
           y="1018.915"
           style="text-align:end;text-anchor:end" /></flowRegion><flowPara
         id="flowPara4044">-40</flowPara></flowRoot>    <flowRoot
       transform="matrix(0.10121557,0,0,0.10121557,36.22561,290.09773)"
       style="font-style:normal;font-weight:normal;font-size:10.66666698px;line-height:1.25;font-family:sans-serif;text-align:end;letter-spacing:0px;word-spacing:0px;text-anchor:end;display:inline;fill:#000000;fill-opacity:1;stroke:none"
       id="flowRoot4054"
       xml:space="preserve"><flowRegion
         style="text-align:end;text-anchor:end"
         id="flowRegion4050"><rect
           style="text-align:end;text-anchor:end"
           y="1018.915"
           x="156.61777"
           height="35.615593"
           width="45.525085"
           id="rect4048" /></flowRegion><flowPara
         id="flowPara4052">-30</flowPara></flowRoot>    <flowRoot
       xml:space="preserve"
       id="flowRoot4062"
       style="font-style:normal;font-weight:normal;font-size:10.66666698px;line-height:1.25;font-family:sans-serif;text-align:end;letter-spacing:0px;word-spacing:0px;text-anchor:end;display:inline;fill:#000000;fill-opacity:1;stroke:none"
       transform="matrix(0.10121557,0,0,0.10121557,36.22561,285.40041)"><flowRegion
         id="flowRegion4058"
         style="text-align:end;text-anchor:end"><rect
           id="rect4056"
           width="45.525085"
           height="35.615593"
           x="156.61777"
           y="1018.915"
           style="text-align:end;text-anchor:end" /></flowRegion><flowPara
         id="flowPara4060">-20</flowPara></flowRoot>    <flowRoot
       transform="matrix(0.10121557,0,0,0.10121557,36.22561,280.70308)"
       style="font-style:normal;font-weight:normal;font-size:10.66666698px;line-height:1.25;font-family:sans-serif;text-align:end;letter-spacing:0px;word-spacing:0px;text-anchor:end;display:inline;fill:#000000;fill-opacity:1;stroke:none"
       id="flowRoot4070"
       xml:space="preserve"><flowRegion
         style="text-align:end;text-anchor:end"
         id="flowRegion4066"><rect
           style="text-align:end;text-anchor:end"
           y="1018.915"
           x="156.61777"
           height="35.615593"
           width="45.525085"
           id="rect4064" /></flowRegion><flowPara
         id="flowPara4068">-10</flowPara></flowRoot>    <flowRoot
       transform="matrix(0.10121557,0,0,0.10121557,36.22561,271.30844)"
       style="font-style:normal;font-weight:normal;font-size:10.66666698px;line-height:1.25;font-family:sans-serif;text-align:end;letter-spacing:0px;word-spacing:0px;text-anchor:end;display:inline;fill:#000000;fill-opacity:1;stroke:none"
       id="flowRoot4086"
       xml:space="preserve"><flowRegion
         style="text-align:end;text-anchor:end"
         id="flowRegion4082"><rect
           style="text-align:end;text-anchor:end"
           y="1018.915"
           x="156.61777"
           height="35.615593"
           width="45.525085"
           id="rect4080" /></flowRegion><flowPara
         id="flowPara4084">10</flowPara></flowRoot>    <flowRoot
       xml:space="preserve"
       id="flowRoot4094"
       style="font-style:normal;font-weight:normal;font-size:10.66666698px;line-height:1.25;font-family:sans-serif;text-align:end;letter-spacing:0px;word-spacing:0px;text-anchor:end;display:inline;fill:#000000;fill-opacity:1;stroke:none"
       transform="matrix(0.10121557,0,0,0.10121557,36.22561,266.61112)"><flowRegion
         id="flowRegion4090"
         style="text-align:end;text-anchor:end"><rect
           id="rect4088"
           width="45.525085"
           height="35.615593"
           x="156.61777"
           y="1018.915"
           style="text-align:end;text-anchor:end" /></flowRegion><flowPara
         id="flowPara4092">20</flowPara></flowRoot>    <flowRoot
       xml:space="preserve"
       id="flowRoot4110"
       style="font-style:normal;font-weight:normal;font-size:10.66666698px;line-height:1.25;font-family:sans-serif;text-align:end;letter-spacing:0px;word-spacing:0px;text-anchor:end;display:inline;fill:#000000;fill-opacity:1;stroke:none"
       transform="matrix(0.10121557,0,0,0.10121557,36.22561,276.00576)"><flowRegion
         id="flowRegion4106"
         style="text-align:end;text-anchor:end"><rect
           id="rect4104"
           width="45.525085"
           height="35.615593"
           x="156.61777"
           y="1018.915"
           style="text-align:end;text-anchor:end" /></flowRegion><flowPara
         id="flowPara4108">0</flowPara></flowRoot>    <flowRoot
       xml:space="preserve"
       id="flowRoot4118"
       style="font-style:normal;font-weight:normal;font-size:10.66666698px;line-height:1.25;font-family:sans-serif;text-align:center;letter-spacing:0px;word-spacing:0px;text-anchor:middle;display:inline;fill:#000000;fill-opacity:1;stroke:none"
       transform="matrix(0,-0.10121557,0.10121557,0,-53.01403,405.05657)"><flowRegion
         id="flowRegion4114"
         style="text-align:center;text-anchor:middle"><rect
           id="rect4112"
           width="45.525085"
           height="35.615593"
           x="156.61777"
           y="1018.915"
           style="text-align:center;text-anchor:middle" /></flowRegion><flowPara
         id="flowPara4116">Degrees</flowPara></flowRoot>    <text
       xml:space="preserve"
       style="font-style:normal;font-weight:normal;font-size:0.83710337px;line-height:1.25;font-family:sans-serif;text-align:start;letter-spacing:0px;word-spacing:0px;text-anchor:start;fill:#000000;fill-opacity:1;stroke:none;stroke-width:0.07847844"
       x="38.700916"
       y="369.10345"
       id="text4127"><tspan
         sodipodi:role="line"
         id="tspan4125"
         x="38.700916"
         y="369.10345"
         style="text-align:start;text-anchor:start;stroke-width:0.07847844">(A)</tspan></text>
    <text
       id="text4131"
       y="369.10345"
       x="66.031219"
       style="font-style:normal;font-weight:normal;font-size:1.07963276px;line-height:1.25;font-family:sans-serif;text-align:start;letter-spacing:0px;word-spacing:0px;text-anchor:start;fill:#000000;fill-opacity:1;stroke:none;stroke-width:0.10121557"
       xml:space="preserve"><tspan
         style="text-align:start;text-anchor:start;stroke-width:0.10121557"
         y="369.10345"
         x="66.031219"
         id="tspan4129"
         sodipodi:role="line">(B)</tspan></text>
    <flowRoot
       xml:space="preserve"
       id="flowRoot4167"
       style="font-style:normal;font-weight:normal;font-size:10.66666698px;line-height:1.25;font-family:sans-serif;text-align:end;letter-spacing:0px;word-spacing:0px;text-anchor:end;fill:#000000;fill-opacity:1;stroke:none"
       transform="matrix(0.26458333,0,0,0.26458333,21.27464,148.39815)"><flowRegion
         id="flowRegion4169"><rect
           id="rect4171"
           width="157.14285"
           height="38.57143"
           x="363.57144"
           y="601.74017" /></flowRegion><flowPara
         id="flowPara4173" /></flowRoot>  </g>
</svg>
